<svg width="73" height="62" viewBox="0 0 73 62" fill="none" xmlns="http://www.w3.org/2000/svg">
    <path d="M36.4124 52.5823H37.5676L38.3302 47.5012C38.3678 47.2494 38.4856 47.0244 38.6568 46.853C38.8293 46.6802 39.0545 46.5609 39.3052 46.5226C39.831 46.4427 40.3483 46.3348 40.8538 46.2003C41.3693 46.063 41.8757 45.8989 42.3687 45.7091C42.606 45.6173 42.8573 45.6069 43.087 45.6692C43.3203 45.7324 43.5345 45.8682 43.6938 46.0677L46.8976 50.0864L47.8971 49.5109L46.0126 44.7174C45.9204 44.4832 45.91 44.2317 45.9716 43.9989C46.0331 43.7665 46.1666 43.5528 46.3627 43.3939L46.3661 43.3912C46.7783 43.0597 47.1727 42.7052 47.5474 42.3312C47.9211 41.9579 48.2764 41.563 48.6103 41.1492C48.769 40.9513 48.9842 40.8162 49.2184 40.7541C49.4541 40.6916 49.709 40.7032 49.9451 40.7991L49.9654 40.8075L54.7258 42.6805L55.305 41.6777L51.2823 38.4741C51.0828 38.315 50.9466 38.1006 50.8834 37.8669C50.8211 37.6365 50.8313 37.3852 50.9234 37.1483C51.1122 36.6597 51.2769 36.1533 51.4165 35.6327C51.5525 35.1245 51.6611 34.6092 51.741 34.0901C51.7793 33.839 51.8984 33.6142 52.0711 33.4422C52.2423 33.2714 52.4665 33.1543 52.7164 33.1163L57.802 32.3506V31.1953L52.7164 30.4302C52.6991 30.4276 52.6819 30.4245 52.665 30.4207C52.4355 30.375 52.2305 30.2624 52.0714 30.1037C51.8986 29.9316 51.7795 29.7068 51.741 29.4557C51.6611 28.9364 51.5525 28.4205 51.4163 27.912C51.2767 27.3916 51.112 26.8852 50.923 26.3966C50.8308 26.1576 50.8208 25.9051 50.8834 25.675C50.9464 25.4435 51.0826 25.2302 51.282 25.0711L55.3048 21.868L54.7256 20.8654L49.9358 22.7497C49.9216 22.7552 49.9071 22.7603 49.8928 22.765C49.6711 22.8425 49.4361 22.8487 49.2182 22.7913C48.9849 22.7296 48.7699 22.595 48.6103 22.3971C48.2759 21.9828 47.9204 21.5875 47.5465 21.214C47.1721 20.84 46.7776 20.4861 46.3658 20.1551C46.3536 20.1453 46.3418 20.1353 46.3305 20.1248C46.1519 19.9692 46.0297 19.7669 45.9716 19.5472C45.9102 19.3148 45.9207 19.0635 46.0126 18.8285L47.8973 14.0354L46.8963 13.4573L43.6938 17.4789C43.6827 17.4931 43.6709 17.5067 43.6589 17.5198C43.504 17.6966 43.3036 17.8183 43.0868 17.8769C42.856 17.9394 42.606 17.9303 42.3719 17.8406C42.3547 17.8341 42.3378 17.8268 42.3213 17.8192C41.8494 17.6394 41.3593 17.4813 40.8542 17.3462C40.3305 17.2062 39.8125 17.096 39.3043 17.0168L39.3039 17.0192C39.053 16.9807 38.8284 16.8618 38.6563 16.6893C38.486 16.5184 38.3687 16.2947 38.3307 16.0445L37.5672 10.9629H36.4128L35.6498 16.0445C35.6471 16.0616 35.644 16.0783 35.6404 16.095C35.595 16.3247 35.4824 16.53 35.3237 16.6893C35.1516 16.8621 34.9268 16.9807 34.6759 17.0192C34.6565 17.0221 34.6372 17.0243 34.6178 17.0257C34.1274 17.104 33.6288 17.2111 33.1258 17.3458C32.6042 17.4853 32.0989 17.6496 31.6139 17.8372L31.6101 17.8386L31.6108 17.8404C31.3769 17.9301 31.1262 17.9392 30.8952 17.8769C30.6619 17.8137 30.4475 17.6781 30.2884 17.4789L27.0841 13.4559L26.082 14.0342L27.9667 18.8285C28.0589 19.0633 28.0693 19.3146 28.0079 19.547C27.9462 19.7798 27.8127 19.9931 27.6166 20.152L27.6132 20.1547C27.2146 20.4752 26.8224 20.8289 26.4393 21.2118C26.0558 21.5953 25.6989 21.9913 25.3713 22.3971C25.2117 22.5952 24.9971 22.7299 24.7636 22.7915C24.5328 22.8523 24.2817 22.8411 24.0457 22.7483L24.0451 22.7499L19.2531 20.8652L18.6752 21.8669L22.6971 25.0664C22.8965 25.2253 23.0327 25.4384 23.0957 25.6699C23.158 25.8987 23.148 26.1496 23.0561 26.3882C22.8707 26.8708 22.7064 27.3783 22.5646 27.9078C22.4239 28.4331 22.3133 28.9518 22.2336 29.4602C22.1942 29.7117 22.0765 29.9352 21.9064 30.1044C21.7352 30.2747 21.512 30.3917 21.2618 30.4296L16.1793 31.1951V32.3506L21.2618 33.1158C21.2789 33.1185 21.2958 33.1216 21.3125 33.1252C21.542 33.1706 21.747 33.2828 21.9066 33.4417C22.0769 33.6109 22.1944 33.8341 22.2336 34.0859C22.3137 34.5963 22.4246 35.1163 22.5655 35.6418C22.7051 36.1616 22.8687 36.6651 23.0559 37.1486C23.148 37.3872 23.1583 37.6394 23.0955 37.8702C23.0334 38.0988 22.8974 38.3107 22.6968 38.4712L22.6953 38.4723L22.6968 38.4743L18.6746 41.679L19.2526 42.6811L24.0446 40.796C24.0589 40.7904 24.0731 40.7853 24.0874 40.7806C24.3102 40.7025 24.545 40.6965 24.7627 40.7541C24.9971 40.8162 25.2121 40.9513 25.3706 41.1492C25.7072 41.5659 26.0636 41.9624 26.4368 42.3357L26.4384 42.3372L26.44 42.3357C26.8224 42.7181 27.2144 43.0707 27.6126 43.3905C27.6248 43.4003 27.6366 43.4106 27.648 43.4208C27.8265 43.5764 27.9489 43.7792 28.007 43.9986C28.0687 44.2315 28.0582 44.483 27.9658 44.7172L26.0811 49.5118L27.0826 50.0897L30.2875 46.0634C30.3071 46.0387 30.3278 46.0158 30.3496 45.994C30.5012 45.831 30.6908 45.7189 30.8947 45.6641C31.128 45.6013 31.3809 45.612 31.6173 45.7053C32.1065 45.8963 32.6094 46.0608 33.1222 46.1981C33.6304 46.3341 34.1486 46.4425 34.6737 46.5222C34.9241 46.5607 35.1496 46.6798 35.3221 46.8525C35.4933 47.0239 35.611 47.2487 35.6486 47.5005L36.4112 52.5816L36.4124 52.5823ZM35.4764 42.4209C34.3122 42.2562 33.2068 41.9038 32.1918 41.3959C31.1489 40.8739 30.2033 40.1885 29.3893 39.3743C28.3977 38.3826 27.5983 37.1978 27.0523 35.8816C26.5268 34.6146 26.2365 33.2265 26.2365 31.7729C26.2365 30.3194 26.5268 28.9315 27.0523 27.6643C27.5983 26.3481 28.3979 25.1635 29.3893 24.1716C30.381 23.1799 31.5654 22.3802 32.8814 21.8341C34.1484 21.3086 35.536 21.0183 36.9893 21.0183C38.4431 21.0183 39.8312 21.3086 41.0984 21.8344C42.4148 22.3804 43.5997 23.1799 44.5916 24.1718C45.5834 25.1635 46.3832 26.3483 46.9292 27.6645C47.455 28.9315 47.7453 30.3194 47.7453 31.7732C47.7453 33.2269 47.455 34.6148 46.9292 35.8818C46.3832 37.198 45.5834 38.3826 44.5916 39.3745C43.7771 40.1887 42.8313 40.8739 41.7882 41.3961C40.773 41.9043 39.6673 42.2564 38.5027 42.4211C38.2532 42.4565 38.0017 42.4832 37.7484 42.5008C37.4946 42.5186 37.2413 42.5278 36.9891 42.5278C36.7369 42.5278 36.4836 42.5186 36.2298 42.5008C35.9767 42.483 35.7259 42.4561 35.4764 42.4209ZM36.9895 23.5058C35.8712 23.5058 34.8048 23.7286 33.8321 24.1324C32.821 24.5518 31.9104 25.167 31.1469 25.9303C30.3836 26.6936 29.7686 27.6044 29.349 28.6154C28.9455 29.5882 28.7227 30.6548 28.7227 31.7732C28.7227 32.8917 28.9455 33.9584 29.349 34.9311C29.7684 35.9421 30.3836 36.853 31.1469 37.6165C31.9102 38.3799 32.821 38.995 33.8321 39.4146C34.8048 39.8181 35.8712 40.0412 36.9895 40.0412C38.1083 40.0412 39.1752 39.8183 40.1481 39.4146C41.1594 38.9952 42.0705 38.3799 42.834 37.6167C43.5966 36.8541 44.2123 35.9432 44.6323 34.9313C45.0361 33.9586 45.2589 32.8917 45.2589 31.7732C45.2589 30.6537 45.0363 29.5866 44.633 28.6139C44.2136 27.602 43.5992 26.6916 42.8375 25.9301C42.0745 25.1672 41.1627 24.552 40.1502 24.1322C39.1767 23.7286 38.1092 23.5058 36.9895 23.5058ZM38.5662 54.9057H35.4136C35.1293 54.9057 34.8638 54.8 34.657 54.6226L34.6554 54.6244C34.4518 54.449 34.3086 54.2019 34.2659 53.9165L33.4772 48.6653C33.1556 48.5992 32.8377 48.5242 32.5243 48.4405C32.2087 48.3561 31.8955 48.2622 31.5854 48.1596L28.2784 52.3147C28.0994 52.5389 27.851 52.6816 27.5848 52.7321C27.3208 52.7822 27.039 52.7403 26.7903 52.5963C26.7765 52.5883 26.7629 52.5798 26.7496 52.5712L24.0604 51.019C23.8111 50.8754 23.6328 50.6515 23.5438 50.3973C23.4545 50.1429 23.4534 49.8582 23.5578 49.5931L25.5046 44.6413C25.2607 44.424 25.0243 44.201 24.7961 43.9728C24.5635 43.74 24.3385 43.5023 24.1216 43.2594L19.1732 45.2055C19.1594 45.2109 19.1456 45.2158 19.1315 45.2205C18.8778 45.3099 18.6098 45.3048 18.3692 45.2205C18.115 45.1316 17.8908 44.9529 17.7468 44.7029L16.1677 41.967L16.1666 41.9677C16.0255 41.7206 15.9845 41.4411 16.0342 41.1788C16.0845 40.9137 16.2256 40.6669 16.448 40.4886L16.4515 40.4859L20.6038 37.1768C20.5016 36.8674 20.4083 36.5551 20.324 36.2404C20.2398 35.9261 20.1644 35.6089 20.0978 35.2892L14.8457 34.4986C14.5628 34.4558 14.3157 34.3114 14.1386 34.105C13.9625 33.9 13.8574 33.6351 13.8574 33.3505V30.1967C13.8574 29.9123 13.9636 29.646 14.1419 29.4393C14.3175 29.2354 14.5635 29.0922 14.846 29.0499L20.0978 28.2588C20.1639 27.9405 20.2392 27.624 20.3231 27.3102C20.407 26.9963 20.5012 26.6816 20.6051 26.3666L16.4517 23.0624C16.2274 22.8846 16.0851 22.6361 16.0342 22.3692C15.9839 22.1055 16.0248 21.8241 16.1664 21.5768C16.1777 21.557 16.19 21.5376 16.2027 21.5192L17.7477 18.8416L17.7464 18.8407C17.8897 18.5932 18.1139 18.416 18.3687 18.3272C18.6218 18.239 18.9061 18.2386 19.1721 18.3436L19.1727 18.3421L24.1214 20.2878C24.338 20.0454 24.5628 19.8076 24.7954 19.5753C25.0236 19.3469 25.2602 19.1238 25.5044 18.9061L23.5574 13.9546C23.453 13.689 23.4543 13.4043 23.5434 13.1499C23.6322 12.8955 23.8105 12.6717 24.06 12.5282L26.7905 10.952L26.7899 10.9507C27.0385 10.8071 27.3208 10.7655 27.5841 10.8153C27.8492 10.8656 28.0969 11.0072 28.2748 11.2291L28.2775 11.2327L31.5859 15.3854C31.8959 15.283 32.2089 15.1895 32.5241 15.1051C32.8391 15.0208 33.1569 14.9455 33.4768 14.8792L34.2652 9.62979C34.2677 9.61398 34.2706 9.5984 34.2737 9.58282C34.3242 9.31994 34.4627 9.09089 34.6554 8.92483C34.8622 8.74676 35.1284 8.64014 35.4134 8.64014H38.566C38.8513 8.64014 39.1169 8.74654 39.3234 8.92461C39.528 9.10113 39.6714 9.34754 39.7139 9.62956L40.5023 14.8792C40.8219 14.9455 41.1394 15.0208 41.4543 15.1049C41.7702 15.1895 42.084 15.283 42.3952 15.3858L45.7036 11.232C45.7243 11.206 45.7464 11.1817 45.7695 11.159C45.9416 10.976 46.1626 10.8585 46.397 10.8144C46.6614 10.7646 46.9433 10.8064 47.1917 10.9509L49.918 12.5257L49.9184 12.5248C50.1673 12.6675 50.3454 12.8923 50.4353 13.1494C50.5243 13.4041 50.5252 13.689 50.4211 13.9543L48.4743 18.9055C48.7189 19.1232 48.9551 19.3458 49.1821 19.5726C49.4163 19.8065 49.642 20.0452 49.859 20.2876L54.8061 18.3419C54.8353 18.3305 54.8649 18.3209 54.8945 18.3132C55.1345 18.2393 55.3842 18.2479 55.6097 18.3265C55.8644 18.4151 56.0892 18.593 56.233 18.8407L57.8114 21.5737C57.9552 21.8221 57.9972 22.1041 57.9474 22.3686C57.8971 22.6346 57.7546 22.883 57.53 23.0624L53.3753 26.3701C53.4784 26.682 53.5723 26.9961 53.6569 27.3117C53.741 27.6253 53.816 27.9414 53.8819 28.2588L59.1354 29.0495C59.1509 29.052 59.1665 29.0546 59.1819 29.058C59.4448 29.1085 59.6736 29.2467 59.8394 29.4395C60.0175 29.646 60.1239 29.9121 60.1239 30.197V33.3507C60.1239 33.6356 60.0186 33.9005 59.8425 34.105C59.6651 34.3114 59.4176 34.4561 59.1351 34.4988L53.8817 35.2892C53.8158 35.6062 53.741 35.9216 53.6569 36.2346C53.5721 36.5507 53.4781 36.865 53.3751 37.1768L57.53 40.4855C57.7548 40.6646 57.8971 40.9131 57.9474 41.1791C57.997 41.4415 57.9549 41.7224 57.8114 41.971L57.81 41.9733L57.8114 41.9742L56.233 44.7065C56.2185 44.7314 56.2029 44.7552 56.1862 44.7779C56.0429 44.9892 55.839 45.1412 55.6106 45.2211C55.3564 45.3099 55.0719 45.3106 54.8066 45.2055L49.8592 43.2599C49.6422 43.5025 49.4165 43.7409 49.1823 43.9751C48.9553 44.2019 48.7191 44.4245 48.4745 44.6422L50.4213 49.5938C50.5257 49.8586 50.5248 50.1433 50.4355 50.3984C50.3467 50.6522 50.1689 50.8761 49.9187 51.0204L47.1866 52.5934L47.1879 52.5959C46.9401 52.7381 46.6586 52.7784 46.3937 52.7279C46.1319 52.6778 45.8859 52.5351 45.7065 52.3105L45.7054 52.3089L45.7034 52.3105L42.395 48.1614C42.0838 48.2638 41.7677 48.3577 41.4474 48.4429C41.134 48.5264 40.8186 48.601 40.5021 48.6662L39.7136 53.9176C39.6714 54.1999 39.528 54.4461 39.3234 54.6224C39.1167 54.8004 38.8507 54.9066 38.5657 54.9066L38.5662 54.9057Z" fill="white"/>
</svg>
