<svg width="72" height="62" viewBox="0 0 72 62" fill="none" xmlns="http://www.w3.org/2000/svg">
    <path d="M36.4917 6.91691L41.0353 10.6126L46.8375 9.68062C47.4027 9.59089 47.9382 9.91603 48.1334 10.4308L48.1357 10.43L50.2281 15.9172L55.7154 18.0096C56.2783 18.2241 56.5842 18.8196 56.4513 19.3903L55.5327 25.1101L59.2398 29.6676C59.6051 30.1168 59.5877 30.7526 59.2284 31.18L55.5327 35.7235L56.4647 41.5257C56.5544 42.0909 56.2293 42.6264 55.7145 42.8216L55.7154 42.8239L50.2281 44.9164L48.1357 50.4036C47.9213 50.9665 47.3258 51.2724 46.755 51.1395L41.0353 50.2209L36.4778 53.928C36.0285 54.2934 35.3928 54.2759 34.9654 53.9167L30.4218 50.2209L24.6197 51.1529C24.0544 51.2427 23.5189 50.9175 23.3237 50.4027L23.3214 50.4036L21.229 44.9164L15.7417 42.8239C15.1789 42.6095 14.8729 42.014 15.0058 41.4432L15.9244 35.7235L12.2173 31.166C11.852 30.7167 11.8694 30.081 12.2287 29.6536L15.9244 25.1101L14.9924 19.3079C14.9027 18.7427 15.2278 18.2072 15.7426 18.012L15.7417 18.0096L21.229 15.9172L23.3214 10.43C23.5358 9.86709 24.1314 9.56117 24.7021 9.69403L30.4218 10.6126L34.9794 6.90555C35.4286 6.5402 36.0643 6.55768 36.4917 6.91691V6.91691ZM25.975 30.1929C25.5176 29.7227 25.5278 28.9704 25.9983 28.513C26.4685 28.0556 27.2208 28.0658 27.6782 28.5363L33.5826 34.6167L43.7605 23.6836C44.2078 23.2029 44.96 23.1758 45.4404 23.623C45.9212 24.0702 45.9483 24.8225 45.5011 25.3029L34.4715 37.1511L34.471 37.1508C34.4576 37.1651 34.4439 37.1794 34.4296 37.1931C33.9593 37.6505 33.2071 37.6403 32.7497 37.1698L25.975 30.1932V30.1929ZM39.9491 12.791L35.7287 9.3581L31.5083 12.791V12.7908C31.2557 12.9961 30.92 13.0972 30.573 13.0422L25.2021 12.1795L23.2634 17.2626C23.1466 17.5688 22.9048 17.8255 22.5747 17.9514L17.4916 19.89L18.3507 25.2394C18.409 25.5675 18.3295 25.9177 18.1028 26.1965L14.6699 30.4169L18.1028 34.6374H18.1025C18.3079 34.89 18.409 35.2256 18.354 35.5726L17.4913 40.9436L22.5744 42.8822C22.8806 42.999 23.1373 43.2408 23.2631 43.5709L25.2018 48.6541L30.5512 47.7949C30.8792 47.7366 31.2294 47.8162 31.5083 48.0428L35.7287 51.4758L39.9491 48.0428V48.0431C40.2017 47.8377 40.5374 47.7366 40.8844 47.7917L46.2553 48.6544L48.194 43.5712C48.3108 43.265 48.5526 43.0083 48.8827 42.8825L53.9658 40.9439L53.1067 35.5945C53.0484 35.2664 53.1279 34.9162 53.3546 34.6374L56.7875 30.4169L53.3546 26.1965H53.3549C53.1495 25.9439 53.0484 25.6083 53.1034 25.2613L53.9661 19.8903L48.883 17.9517C48.5768 17.8348 48.3201 17.593 48.1943 17.2629L46.2556 12.1798L40.9062 13.039C40.5782 13.0972 40.228 13.0177 39.9491 12.791V12.791Z" fill="white"/>
</svg>
