<svg width="244" height="43" viewBox="0 0 244 43" fill="none" xmlns="http://www.w3.org/2000/svg">
<g clip-path="url(#clip0_407:70)">
<path fill-rule="evenodd" clip-rule="evenodd" d="M70.4044 9.90918H56.6357V33.0234H59.9441V12.8225H70.4044V9.90918Z" fill="#B66A5F"/>
<path fill-rule="evenodd" clip-rule="evenodd" d="M119.317 22.4491C118.884 22.8726 118.27 23.0875 117.492 23.0875H113.014V18.3698H117.722C118.532 18.3698 119.114 18.5895 119.449 19.0219C119.795 19.471 119.97 20.0238 119.97 20.6645C119.97 21.4247 119.75 22.0253 119.317 22.4491H119.317ZM113.014 25.5206H118.05C118.888 25.5206 119.538 25.7706 119.981 26.2628C120.438 26.7696 120.659 27.3404 120.659 28.0076C120.659 28.7162 120.422 29.3124 119.935 29.8296C119.459 30.3347 118.803 30.5909 117.985 30.5909H113.014V25.5206ZM121.056 24.0668C121.341 23.9134 121.595 23.7289 121.815 23.5134C122.131 23.2057 122.39 22.862 122.586 22.4921C122.777 22.1279 122.92 21.7476 123.011 21.3609C123.1 20.9782 123.146 20.5929 123.146 20.2157C123.146 19.5958 123.03 19.0173 122.805 18.4964C122.578 17.9751 122.253 17.5182 121.844 17.1389C121.438 16.7626 120.954 16.465 120.41 16.2542C119.867 16.0436 119.271 15.9375 118.64 15.9375H109.837V33.0235H118.312C119.115 33.0235 119.857 32.9067 120.52 32.6764C121.182 32.4464 121.764 32.117 122.251 31.6976C122.736 31.2767 123.122 30.7549 123.393 30.1452C123.665 29.5383 123.801 28.8622 123.801 28.1361C123.801 27.0543 123.513 26.1395 122.945 25.4164C122.463 24.8044 121.828 24.352 121.056 24.0667L121.056 24.0668Z" fill="#769D84"/>
<path fill-rule="evenodd" clip-rule="evenodd" d="M152.847 33.0234H156.024V18.7228H163.832V33.0234H167.009V15.9374H152.847V33.0234Z" fill="#769D84"/>
<path fill-rule="evenodd" clip-rule="evenodd" d="M171.047 18.7228H176.785V33.0234H179.962V18.7228H185.699V15.9374H171.047V18.7228Z" fill="#769D84"/>
<path fill-rule="evenodd" clip-rule="evenodd" d="M192.916 28.3295V15.9374H189.738V33.0234H192.501L201.379 20.8871V33.0234H204.556V15.9374H201.959L192.916 28.3295Z" fill="#769D84"/>
<path fill-rule="evenodd" clip-rule="evenodd" d="M224.295 15.9374H220.621L214.915 23.2157H213.509V15.9374H210.332V33.0234H213.509V25.6809H215.244L221.059 32.9568L221.114 33.0234H224.757L217.429 24.2552L224.295 15.9374Z" fill="#769D84"/>
<path fill-rule="evenodd" clip-rule="evenodd" d="M101.234 22.1062C101.521 22.8421 101.665 23.6349 101.665 24.465C101.665 25.3166 101.521 26.1204 101.234 26.8555C100.948 27.5923 100.546 28.2421 100.039 28.7888C99.5323 29.3354 98.9394 29.7695 98.2752 30.0792C96.9524 30.6948 95.3235 30.6948 94.0007 30.0792C93.3365 29.7696 92.749 29.3408 92.2534 28.8045C91.755 28.2658 91.3581 27.6261 91.0743 26.903C90.7889 26.179 90.644 25.3795 90.644 24.5289C90.6441 23.6779 90.7888 22.8739 91.0756 22.1384C91.3581 21.405 91.7549 20.7542 92.2547 20.2035C92.7491 19.6575 93.3379 19.2177 94.002 18.898C94.6634 18.5799 95.3819 18.4186 96.1379 18.4186C96.8955 18.4185 97.6137 18.5746 98.2752 18.8822C98.9394 19.1918 99.5322 19.6264 100.039 20.1727C100.546 20.7194 100.948 21.3695 101.234 22.1061V22.1062ZM101.796 17.6631C101.14 17.1077 100.458 16.6775 99.7188 16.3536C98.6302 15.8755 97.4244 15.6332 96.1379 15.6332C94.8513 15.6332 93.6512 15.8756 92.5724 16.3543C91.4975 16.8306 90.5632 17.4808 89.7932 18.2855C89.0274 19.0885 88.4205 20.0349 87.9874 21.0975C87.5544 22.1607 87.3359 23.3052 87.3359 24.4969C87.3359 25.6672 87.5489 26.7997 87.9706 27.8622C88.3898 28.9237 88.9929 29.8697 89.7598 30.6765C90.5283 31.4806 91.4626 32.1303 92.5389 32.6078C93.6194 33.0864 94.8306 33.3285 96.138 33.3285C97.4455 33.3285 98.6567 33.0865 99.7371 32.6078C100.463 32.2857 101.139 31.8589 101.796 31.3069L101.796 33.0235H104.974V15.9375H101.796V17.6632L101.796 17.6631Z" fill="#769D84"/>
<path fill-rule="evenodd" clip-rule="evenodd" d="M239.926 24.465C239.926 25.3166 239.781 26.1204 239.494 26.8555C239.209 27.5923 238.807 28.2421 238.3 28.7888C237.793 29.3354 237.2 29.7695 236.536 30.0792C235.213 30.6948 233.584 30.6948 232.261 30.0792C231.598 29.7696 231.01 29.3408 230.514 28.8045C230.016 28.2658 229.619 27.6261 229.335 26.903C229.05 26.179 228.905 25.3795 228.905 24.5289C228.905 23.6779 229.05 22.8739 229.336 22.1384C229.619 21.405 230.016 20.7542 230.516 20.2035C231.01 19.6575 231.599 19.2177 232.263 18.898C232.924 18.5799 233.643 18.4186 234.398 18.4186C235.156 18.4185 235.874 18.5746 236.536 18.8822C237.2 19.1918 237.793 19.6264 238.3 20.1727C238.807 20.7194 239.209 21.3695 239.494 22.1062C239.781 22.842 239.926 23.6347 239.926 24.4649L239.926 24.465ZM240.057 15.9374V17.6631C239.401 17.1077 238.719 16.6775 237.979 16.3536C236.891 15.8755 235.685 15.6332 234.399 15.6332C233.112 15.6332 231.912 15.8756 230.833 16.3543C229.759 16.8306 228.824 17.4808 228.054 18.2855C227.289 19.0885 226.681 20.0349 226.248 21.0975C225.815 22.1607 225.597 23.3052 225.597 24.4969C225.597 25.6672 225.81 26.7997 226.232 27.8622C226.651 28.9237 227.254 29.8697 228.02 30.6765C228.79 31.4806 229.723 32.1303 230.8 32.6078C231.88 33.0864 233.092 33.3285 234.399 33.3285C235.706 33.3285 236.918 33.0865 237.998 32.6078C238.723 32.2857 239.4 31.8589 240.057 31.3069V33.0235H243.234V15.9375H240.057L240.057 15.9374Z" fill="#769D84"/>
<path fill-rule="evenodd" clip-rule="evenodd" d="M75.0432 16.0178L68.1475 33.1038H71.287L76.607 19.1605L81.8935 33.1038H85.2628L78.3666 16.0178H75.0432Z" fill="#769D84"/>
<path fill-rule="evenodd" clip-rule="evenodd" d="M129.96 21.465C129.96 22.645 130.152 23.7903 130.539 24.8996C130.925 26.0088 131.474 26.9872 132.186 27.8362C132.897 28.6871 133.761 29.3647 134.774 29.8728C135.788 30.3792 136.923 30.633 138.177 30.633C139.48 30.633 140.633 30.3677 141.634 29.8369C142.636 29.3064 143.486 28.6044 144.187 27.731C144.886 26.8576 145.418 25.8777 145.779 24.7925C146.142 23.7075 146.322 22.5985 146.322 21.465C146.322 20.2612 146.128 19.1117 145.742 18.0143C145.357 16.9169 144.807 15.9492 144.096 15.1102C143.384 14.2733 142.527 13.6016 141.526 13.0933C140.524 12.5868 139.408 12.3332 138.177 12.3332C136.873 12.333 135.716 12.5977 134.702 13.1295C133.689 13.66 132.831 14.3501 132.132 15.1993C131.431 16.0498 130.895 17.022 130.521 18.1194C130.146 19.2162 129.96 20.3318 129.96 21.4649V21.465ZM138.141 33.312C136.435 33.312 134.883 32.9783 133.481 32.3074C132.078 31.6399 130.872 30.7514 129.863 29.6434C128.853 28.5356 128.073 27.2686 127.525 25.8419C126.974 24.4168 126.7 22.9586 126.7 21.4663C126.7 19.9086 126.992 18.418 127.574 16.9916C128.157 15.5665 128.96 14.3048 129.98 13.2068C131 12.1115 132.212 11.2383 133.615 10.5915C135.017 9.94467 136.548 9.62036 138.209 9.62036C139.913 9.62036 141.466 9.96718 142.869 10.6571C144.271 11.3487 145.471 12.2526 146.47 13.3717C147.467 14.4907 148.241 15.7578 148.791 17.1731C149.34 18.5871 149.616 20.0303 149.616 21.4999C149.616 23.0577 149.33 24.5484 148.757 25.9746C148.185 27.3996 147.383 28.6557 146.351 29.7412C145.319 30.8285 144.102 31.6941 142.701 32.3414C141.297 32.9884 139.779 33.3122 138.141 33.3122L138.141 33.312Z" fill="#B66A5F"/>
<path fill-rule="evenodd" clip-rule="evenodd" d="M9.55322 33.9062C3.00117 27.4989 1.42508 18.0702 4.82211 10.2078C4.92338 9.97371 4.59424 9.80202 4.4397 10.0066C-1.68172 18.1033 -1.01074 29.5651 6.49103 36.9007C13.9927 44.2362 25.714 44.892 33.9946 38.9062C34.2039 38.7551 34.0282 38.4331 33.7886 38.5323C25.748 41.8545 16.1055 40.3132 9.55311 33.9063L9.55322 33.9062Z" fill="#769D84"/>
<path fill-rule="evenodd" clip-rule="evenodd" d="M34.9797 9.0428C28.4273 2.63594 18.7848 1.09467 10.7445 4.41685C10.5048 4.51556 10.3293 4.19382 10.5385 4.0426C18.8187 -1.94329 30.5402 -1.28706 38.042 6.04847C45.5438 13.384 46.2147 24.8457 40.0933 32.9428C39.9385 33.147 39.6095 32.9756 39.7106 32.7412C43.108 24.8788 41.5317 15.4501 34.9797 9.0428Z" fill="#B66A5F"/>
</g>
<defs>
<clipPath id="clip0_407:70">
<rect width="242.929" height="42.9487" fill="white" transform="translate(0.305664)"/>
</clipPath>
</defs>
</svg>
