<?xml version="1.0" standalone="no"?>
<!DOCTYPE svg PUBLIC "-//W3C//DTD SVG 20010904//EN"
 "http://www.w3.org/TR/2001/REC-SVG-20010904/DTD/svg10.dtd">
<svg version="1.0" xmlns="http://www.w3.org/2000/svg"
 width="512.000000pt" height="512.000000pt" viewBox="0 0 512.000000 512.000000"
 preserveAspectRatio="xMidYMid meet">
<metadata>
Created by potrace 1.14, written by Peter Selinger 2001-2017
</metadata>
<g transform="translate(0.000000,512.000000) scale(0.100000,-0.100000)"
fill="#000000" stroke="none">
<path d="M2375 5104 c-415 -52 -815 -204 -1132 -430 -66 -47 -68 -50 -54 -73
7 -11 28 -7 117 26 189 70 387 123 525 139 30 3 57 8 60 10 28 16 421 23 564
10 458 -42 916 -216 1290 -490 39 -28 75 -55 81 -61 6 -5 33 -28 60 -50 66
-55 238 -226 305 -305 259 -304 473 -741 548 -1120 6 -30 14 -66 16 -80 3 -14
8 -47 11 -75 3 -27 7 -55 9 -62 9 -28 19 -196 19 -318 0 -322 -48 -594 -159
-900 -37 -101 -44 -130 -33 -136 20 -13 29 -7 70 52 87 124 195 318 253 454
63 149 142 419 160 548 3 27 9 59 11 70 19 94 26 452 11 599 -57 574 -326
1122 -749 1525 -227 217 -480 382 -760 497 -200 82 -378 130 -597 163 -137 20
-491 24 -626 7z"/>
<path d="M437 3863 c-64 -93 -146 -230 -180 -305 -14 -29 -38 -82 -55 -118
-32 -70 -110 -293 -118 -338 -3 -15 -9 -40 -14 -57 -10 -34 -36 -168 -46 -235
-3 -25 -8 -56 -10 -70 -9 -51 -11 -438 -3 -515 25 -230 74 -439 149 -635 11
-30 26 -68 32 -85 6 -16 43 -93 83 -170 293 -572 813 -1017 1415 -1211 270
-86 469 -118 755 -118 229 -1 288 4 495 39 53 10 205 50 300 80 198 64 422
175 609 303 89 60 96 68 82 91 -8 12 -22 9 -88 -16 -141 -56 -324 -109 -436
-128 -17 -3 -39 -8 -47 -10 -8 -2 -40 -7 -70 -10 -30 -4 -57 -8 -60 -10 -12
-8 -204 -19 -320 -19 -121 0 -327 11 -339 19 -3 1 -29 6 -58 9 -215 24 -514
119 -763 242 -741 368 -1268 1087 -1395 1902 -20 135 -29 249 -29 402 0 116
11 317 18 330 2 3 6 28 10 55 16 142 70 347 138 528 33 89 38 111 27 118 -23
14 -25 12 -82 -68z"/>
</g>
</svg>
