<svg width="481" height="481" viewBox="0 0 481 481" fill="none" xmlns="http://www.w3.org/2000/svg">
    <path d="M463.722 240.936C465.024 240.991 466.306 241.28 467.568 241.802C468.851 242.326 469.982 243.057 470.961 243.995C471.96 244.955 472.747 246.099 473.323 247.428C473.898 248.757 474.151 250.246 474.081 251.894C473.997 253.868 473.488 255.538 472.553 256.905C471.619 258.272 470.434 259.282 469 259.934L467.313 257.172C467.977 256.894 468.542 256.551 469.008 256.143C469.474 255.735 469.85 255.282 470.136 254.784C470.422 254.287 470.628 253.766 470.753 253.221C470.898 252.676 470.982 252.15 471.003 251.641C471.052 250.502 470.86 249.495 470.428 248.62C470.017 247.747 469.447 246.999 468.719 246.377C467.991 245.775 467.165 245.302 466.242 244.957C465.318 244.632 464.388 244.45 463.452 244.41C462.394 244.365 461.379 244.495 460.408 244.801C459.437 245.106 458.572 245.548 457.814 246.127C457.055 246.727 456.433 247.445 455.949 248.28C455.485 249.117 455.232 250.044 455.189 251.061C455.166 251.59 455.204 252.132 455.303 252.687C455.421 253.263 455.612 253.811 455.875 254.332C456.158 254.874 456.514 255.368 456.944 255.814C457.372 256.281 457.896 256.67 458.515 256.982L456.777 259.752C455.977 259.371 455.276 258.852 454.672 258.194C454.088 257.538 453.599 256.803 453.206 255.992C452.812 255.18 452.522 254.322 452.337 253.417C452.15 252.532 452.075 251.663 452.111 250.808C452.176 249.282 452.561 247.902 453.265 246.668C453.97 245.434 454.861 244.381 455.938 243.51C457.035 242.639 458.255 241.977 459.599 241.525C460.964 241.073 462.338 240.877 463.722 240.936Z" fill="#D59A8A"/>
    <path d="M472.282 270.818L471.88 273.785L449.236 279.345L449.721 275.773L455.871 274.295L456.997 266L451.458 262.968L451.947 259.365L472.282 270.818ZM458.474 273.97L468.176 271.771L459.427 266.947L458.474 273.97Z" fill="#D59A8A"/>
    <path d="M444.554 298.84L459.711 302.579L449.776 293.489L450.229 291.65L463.259 288.193L448.102 284.455L448.922 281.133L469.981 286.327L469.103 289.887L454.511 293.682L465.664 303.827L464.786 307.387L443.727 302.192L444.554 298.84Z" fill="#D59A8A"/>
    <path d="M460.728 318.957L459.708 321.771L436.401 322.423L437.629 319.034L443.953 318.888L446.805 311.019L442.032 306.884L443.271 303.466L460.728 318.957ZM446.566 319.121L456.513 319.021L448.981 312.457L446.566 319.121Z" fill="#D59A8A"/>
    <path d="M430.605 334.591L438.036 338.1L439.849 334.26L434.531 326.276L436.188 322.768L441.736 331.266C442.218 330.818 442.756 330.441 443.351 330.136C443.955 329.858 444.588 329.662 445.251 329.547C445.904 329.45 446.569 329.449 447.246 329.543C447.922 329.637 448.592 329.84 449.255 330.153C450.028 330.519 450.714 331.022 451.311 331.665C451.9 332.326 452.345 333.054 452.645 333.849C452.964 334.652 453.115 335.501 453.099 336.394C453.092 337.314 452.88 338.217 452.463 339.101L448.745 346.974L429.131 337.713L430.605 334.591ZM447.512 342.574L449.625 338.099C449.825 337.675 449.933 337.231 449.95 336.766C449.967 336.301 449.889 335.847 449.715 335.404C449.559 334.971 449.313 334.562 448.976 334.177C448.649 333.82 448.247 333.529 447.768 333.303C447.289 333.077 446.812 332.942 446.337 332.898C445.863 332.854 445.404 332.896 444.96 333.024C444.535 333.161 444.143 333.371 443.785 333.652C443.437 333.961 443.158 334.336 442.95 334.778L440.771 339.391L447.512 342.574Z" fill="#D59A8A"/>
    <path d="M440.325 356.796C440.708 357.949 440.823 359.09 440.669 360.219C440.515 361.348 440.043 362.543 439.254 363.803C438.163 365.547 436.935 366.664 435.57 367.155C434.212 367.675 432.799 367.475 431.331 366.556C430.347 365.94 429.627 365.153 429.17 364.194C428.73 363.246 428.675 362.202 429.004 361.063C428.101 362.083 427.055 362.678 425.868 362.848C424.669 363.035 423.475 362.755 422.284 362.01C421.438 361.48 420.772 360.835 420.287 360.075C419.802 359.315 419.493 358.485 419.359 357.584C419.233 356.712 419.28 355.792 419.501 354.825C419.721 353.858 420.124 352.909 420.707 351.976C421.507 350.699 422.448 349.714 423.53 349.022C424.629 348.34 425.819 347.956 427.099 347.868L427.784 351.036C426.881 351.096 426.054 351.323 425.303 351.717C424.551 352.112 423.9 352.749 423.349 353.63C423.024 354.148 422.796 354.666 422.664 355.184C422.549 355.713 422.524 356.213 422.589 356.686C422.67 357.17 422.847 357.617 423.119 358.027C423.38 358.455 423.743 358.815 424.209 359.106C425.159 359.701 426.156 359.796 427.201 359.394C428.253 359.019 429.216 358.132 430.092 356.734L431.129 355.076L433.486 356.552L432.513 358.105C431.756 359.314 431.406 360.392 431.461 361.34C431.506 362.305 431.943 363.047 432.771 363.565C433.531 364.041 434.263 364.138 434.967 363.858C435.671 363.578 436.282 363.024 436.801 362.195C437.298 361.401 437.6 360.593 437.706 359.77C437.802 358.965 437.703 358.182 437.41 357.422L440.325 356.796Z" fill="#D59A8A"/>
    <path d="M428.761 379.005L426.974 381.407L404.467 375.318L406.619 372.426L412.717 374.108L417.715 367.393L414.335 362.06L416.505 359.143L428.761 379.005ZM415.152 375.083L424.706 377.853L419.384 369.398L415.152 375.083Z" fill="#D59A8A"/>
    <path d="M419.194 391.315L408.771 402.855L406.527 400.828L414.635 391.85L410.35 387.98L405.907 392.9C405.265 393.61 404.566 394.172 403.808 394.586C403.066 395.013 402.292 395.261 401.488 395.331C400.671 395.416 399.858 395.313 399.05 395.023C398.229 394.747 397.432 394.262 396.661 393.565C395.891 392.869 395.312 392.127 394.926 391.339C394.555 390.565 394.363 389.775 394.351 388.968C394.339 388.161 394.5 387.36 394.834 386.564C395.168 385.768 395.656 385.015 396.298 384.305L403.096 376.777L419.194 391.315ZM398.62 386.155C397.883 386.971 397.564 387.795 397.664 388.626C397.751 389.472 398.195 390.257 398.996 390.981C399.797 391.704 400.623 392.066 401.473 392.066C402.326 392.095 403.12 391.701 403.858 390.885L408.219 386.055L402.981 381.325L398.62 386.155Z" fill="#D59A8A"/>
    <path d="M383.16 397.111C384.301 396.066 385.551 395.335 386.91 394.918C388.267 394.531 389.628 394.403 390.992 394.534C392.369 394.681 393.693 395.07 394.962 395.702C396.217 396.348 397.312 397.181 398.248 398.202C399.225 399.268 399.966 400.468 400.47 401.802C400.974 403.136 401.232 404.488 401.244 405.858C401.241 407.241 400.974 408.578 400.442 409.866C399.909 411.183 399.087 412.351 397.976 413.369C396.834 414.415 395.578 415.124 394.207 415.497C392.834 415.898 391.467 416.019 390.104 415.859C388.727 415.712 387.411 415.316 386.156 414.67C384.9 414.053 383.811 413.242 382.889 412.236C381.912 411.169 381.172 409.969 380.668 408.636C380.149 407.316 379.891 405.964 379.893 404.58C379.91 403.211 380.185 401.868 380.718 400.551C381.25 399.262 382.064 398.116 383.16 397.111ZM395.68 400.555C394.992 399.804 394.205 399.186 393.318 398.701C392.431 398.215 391.522 397.902 390.591 397.76C389.646 397.632 388.706 397.692 387.773 397.94C386.853 398.202 386.003 398.691 385.222 399.407C384.411 400.15 383.849 400.969 383.536 401.863C383.222 402.787 383.102 403.725 383.176 404.68C383.249 405.635 383.49 406.561 383.898 407.458C384.305 408.355 384.84 409.164 385.5 409.884C386.202 410.65 386.989 411.268 387.862 411.739C388.749 412.225 389.659 412.524 390.591 412.636C391.522 412.778 392.447 412.717 393.367 412.455C394.285 412.221 395.127 411.753 395.893 411.051C396.704 410.308 397.266 409.475 397.58 408.552C397.908 407.644 398.042 406.72 397.982 405.78C397.922 404.841 397.689 403.908 397.283 402.982C396.875 402.085 396.341 401.276 395.68 400.555Z" fill="#D59A8A"/>
    <path d="M372.252 430.06L378.004 425.713L366.75 410.821L369.504 408.739L380.758 423.631L386.534 419.266L388.358 421.679L374.075 432.473L372.252 430.06Z" fill="#D59A8A"/>
    <path d="M362.235 432.329C360.956 429.862 359.961 427.697 359.252 425.835C358.525 423.983 358.099 422.363 357.975 420.975C357.862 419.604 358.043 418.434 358.517 417.464C359.002 416.512 359.788 415.695 360.876 415.015L362.898 417.497C362.35 417.888 361.933 418.354 361.646 418.893C361.359 419.433 361.29 420.186 361.437 421.151C361.567 422.126 361.941 423.394 362.557 424.955C363.174 426.515 364.111 428.512 365.369 430.944L368.122 436.321L357.713 442.837L346.203 424.452L349.13 422.62L359.034 438.442L363.85 435.427L362.235 432.329Z" fill="#D59A8A"/>
    <path d="M341.979 432.734L338.662 452.681L336.225 453.888L326.602 434.449L329.695 432.917L336.838 447.346L340.127 427.753L342.728 426.466L352.351 445.904L349.257 447.436L341.979 432.734Z" fill="#D59A8A"/>
    <path d="M308.894 447.291C308.583 446.473 308.476 445.674 308.573 444.897C308.651 444.127 308.889 443.405 309.287 442.731C309.673 442.083 310.2 441.491 310.867 440.955C311.542 440.437 312.308 440.016 313.165 439.691L322.848 436.016L330.544 456.295L320.09 460.262C319.386 460.53 318.69 460.62 318.003 460.532C317.316 460.444 316.679 460.228 316.091 459.885C315.511 459.561 314.996 459.124 314.548 458.575C314.089 458.053 313.74 457.477 313.501 456.849C313.125 455.859 313.028 454.828 313.21 453.757C313.38 452.712 313.852 451.803 314.626 451.03C313.334 451.128 312.182 450.847 311.168 450.186C310.143 449.551 309.385 448.586 308.894 447.291ZM312.406 446.645C312.565 447.064 312.793 447.435 313.09 447.758C313.368 448.088 313.684 448.349 314.04 448.54C314.377 448.739 314.75 448.859 315.157 448.901C315.565 448.942 315.969 448.887 316.369 448.735L323.052 446.199L320.7 440.001L314.217 442.461C313.798 442.62 313.436 442.844 313.132 443.134C312.835 443.443 312.604 443.781 312.439 444.149C312.281 444.535 312.194 444.939 312.179 445.358C312.171 445.797 312.247 446.226 312.406 446.645ZM326.293 454.739L324.028 448.769L318.144 451.002C317.744 451.154 317.411 451.367 317.146 451.643C316.861 451.925 316.641 452.237 316.488 452.578C316.322 452.946 316.242 453.336 316.246 453.749C316.231 454.168 316.306 454.597 316.472 455.035C316.805 455.911 317.323 456.531 318.028 456.895C318.74 457.279 319.477 457.326 320.238 457.037L326.293 454.739Z" fill="#D59A8A"/>
    <path d="M303.602 465.51L300.715 466.304L286.715 447.659L290.191 446.702L293.964 451.78L302.035 449.56L302.651 443.275L306.156 442.311L303.602 465.51ZM295.284 454.046L301.113 462.107L302.118 452.167L295.284 454.046Z" fill="#D59A8A"/>
    <path d="M273.752 449.883L275.199 457.972L279.379 457.225L282.803 448.264L286.623 447.58L282.912 457.027C283.557 457.16 284.176 457.38 284.769 457.688C285.345 458.019 285.872 458.422 286.35 458.895C286.808 459.372 287.194 459.913 287.509 460.519C287.825 461.124 288.047 461.788 288.176 462.51C288.326 463.352 288.313 464.202 288.136 465.062C287.938 465.925 287.603 466.709 287.129 467.414C286.659 468.14 286.055 468.755 285.318 469.259C284.564 469.787 283.706 470.137 282.743 470.309L274.173 471.842L270.353 450.491L273.752 449.883ZM277.044 468.287L281.915 467.416C282.377 467.333 282.801 467.164 283.19 466.908C283.579 466.653 283.903 466.326 284.163 465.928C284.426 465.549 284.617 465.112 284.735 464.615C284.837 464.142 284.841 463.644 284.748 463.123C284.654 462.602 284.488 462.135 284.249 461.723C284.01 461.31 283.709 460.96 283.347 460.673C282.989 460.406 282.592 460.209 282.155 460.08C281.702 459.975 281.234 459.965 280.753 460.051L275.731 460.95L277.044 468.287Z" fill="#D59A8A"/>
    <path d="M250.09 452.045C251.636 451.974 253.064 452.213 254.374 452.764C255.665 453.336 256.792 454.11 257.754 455.085C258.718 456.08 259.485 457.227 260.054 458.526C260.604 459.826 260.911 461.167 260.975 462.551C261.042 463.995 260.842 465.391 260.374 466.738C259.906 468.085 259.238 469.288 258.37 470.348C257.481 471.408 256.42 472.263 255.186 472.911C253.932 473.581 252.553 473.951 251.047 474.021C249.501 474.092 248.082 473.832 246.791 473.239C245.48 472.668 244.352 471.884 243.409 470.888C242.446 469.893 241.689 468.745 241.139 467.446C240.571 466.167 240.254 464.846 240.191 463.483C240.124 462.039 240.325 460.643 240.792 459.296C241.24 457.95 241.908 456.747 242.796 455.686C243.686 454.646 244.758 453.791 246.011 453.121C247.245 452.473 248.605 452.114 250.09 452.045ZM257.496 462.712C257.449 461.695 257.24 460.715 256.871 459.774C256.501 458.833 256.004 458.01 255.38 457.305C254.736 456.601 253.976 456.045 253.101 455.637C252.226 455.249 251.26 455.08 250.202 455.129C249.104 455.18 248.148 455.448 247.334 455.935C246.501 456.442 245.807 457.086 245.252 457.866C244.697 458.646 244.289 459.511 244.027 460.461C243.765 461.411 243.657 462.375 243.702 463.351C243.75 464.389 243.959 465.368 244.328 466.289C244.697 467.23 245.204 468.042 245.847 468.726C246.471 469.431 247.22 469.977 248.095 470.365C248.95 470.774 249.896 470.954 250.933 470.906C252.032 470.855 252.998 470.576 253.831 470.069C254.664 469.582 255.359 468.958 255.915 468.198C256.471 467.439 256.89 466.573 257.171 465.602C257.433 464.652 257.541 463.688 257.496 462.712Z" fill="#D59A8A"/>
    <path d="M235.453 474.193L217.886 473.175L219.141 451.521L222.587 451.72L221.507 470.355L232.182 470.974L233.262 452.339L236.708 452.539L235.453 474.193Z" fill="#D59A8A"/>
    <path d="M196.682 467.074L203.81 468.153L206.603 449.697L210.016 450.213L207.224 468.669L214.382 469.753L213.93 472.743L196.229 470.064L196.682 467.074Z" fill="#D59A8A"/>
    <path d="M193.069 452.539L177.612 465.576L174.974 464.915L180.249 443.876L183.598 444.715L179.683 460.332L194.888 447.546L197.703 448.252L192.428 469.291L189.08 468.451L193.069 452.539Z" fill="#D59A8A"/>
    <path d="M168.46 453.07L166.332 452.307L156.76 458.647L153.079 457.328L163.917 450.08L159.731 436.671L163.413 437.99L167.056 449.289L169.501 450.165L172.674 441.307L175.924 442.471L168.61 462.891L165.36 461.727L168.46 453.07Z" fill="#D59A8A"/>
    <path d="M143.558 453.026L140.842 451.768L142.194 428.491L145.465 430.006L145.067 436.319L152.663 439.837L157.192 435.437L160.491 436.964L143.558 453.026ZM144.611 438.903L143.856 448.821L151.043 441.881L144.611 438.903Z" fill="#D59A8A"/>
    <path d="M129.486 433.963C128.79 435.066 127.902 436.034 126.821 436.869C125.729 437.722 124.533 438.339 123.231 438.722C121.902 439.111 120.518 439.225 119.078 439.063C117.639 438.901 116.222 438.38 114.827 437.5C113.156 436.445 111.96 435.173 111.239 433.682C110.518 432.192 110.231 430.662 110.379 429.093L113.614 429.004C113.525 429.718 113.541 430.379 113.664 430.986C113.786 431.593 113.992 432.144 114.281 432.64C114.571 433.136 114.921 433.573 115.331 433.953C115.731 434.35 116.146 434.684 116.577 434.956C117.541 435.564 118.51 435.899 119.484 435.959C120.446 436.037 121.378 435.915 122.28 435.593C123.164 435.26 123.986 434.779 124.744 434.15C125.485 433.51 126.106 432.793 126.606 432.001C127.171 431.105 127.563 430.161 127.781 429.166C127.999 428.172 128.045 427.202 127.92 426.256C127.777 425.299 127.464 424.402 126.98 423.567C126.485 422.749 125.807 422.068 124.945 421.524C124.498 421.242 124.009 421.005 123.478 420.815C122.92 420.631 122.349 420.524 121.767 420.494C121.156 420.469 120.55 420.532 119.949 420.683C119.331 420.823 118.733 421.084 118.155 421.465L116.616 418.58C117.344 418.076 118.143 417.725 119.014 417.528C119.874 417.348 120.754 417.29 121.654 417.352C122.554 417.414 123.443 417.59 124.32 417.878C125.18 418.156 125.972 418.524 126.696 418.98C127.987 419.795 128.993 420.816 129.713 422.041C130.433 423.266 130.904 424.562 131.124 425.93C131.334 427.314 131.301 428.702 131.025 430.094C130.738 431.502 130.225 432.792 129.486 433.963Z" fill="#D59A8A"/>
    <path d="M99.455 426.616L97.0797 424.793L103.496 402.377L106.356 404.572L104.585 410.644L111.226 415.74L116.609 412.438L119.493 414.651L99.455 426.616ZM103.575 413.065L100.666 422.578L109.198 417.379L103.575 413.065Z" fill="#D59A8A"/>
    <path d="M89.0318 388.749L78.2774 400.065L91.0946 395.935L92.4676 397.24L89.0175 410.272L99.7719 398.956L102.252 401.313L87.3095 417.036L84.6522 414.51L88.5821 399.954L74.2443 404.619L71.587 402.093L86.5295 386.371L89.0318 388.749Z" fill="#D59A8A"/>
    <path d="M63.5139 392.797L61.5727 390.518L72.5403 369.942L74.8776 372.687L71.8742 378.254L77.3015 384.627L83.2562 382.525L85.6132 385.293L63.5139 392.797ZM70.3795 380.41L65.5437 389.103L74.9748 385.806L70.3795 380.41Z" fill="#D59A8A"/>
    <path d="M64.9743 359.116L58.2586 363.852L60.7061 367.322L70.2743 366.63L72.5105 369.801L62.3815 370.44C62.534 371.08 62.5964 371.734 62.5687 372.401C62.5127 373.064 62.3715 373.712 62.1451 374.345C61.9071 374.962 61.5804 375.541 61.1652 376.083C60.75 376.625 60.2428 377.107 59.6437 377.53C58.9446 378.023 58.1683 378.371 57.3148 378.574C56.4495 378.761 55.597 378.789 54.7573 378.659C53.9009 378.54 53.0881 378.253 52.319 377.799C51.5215 377.339 50.841 376.71 50.2776 375.911L45.2593 368.796L62.9846 356.295L64.9743 359.116ZM49.6956 369.892L52.5481 373.936C52.8181 374.319 53.1512 374.632 53.5475 374.876C53.9438 375.12 54.3773 375.275 54.8481 375.342C55.3022 375.421 55.7794 375.408 56.2795 375.304C56.7513 375.196 57.2036 374.989 57.6363 374.684C58.0691 374.379 58.4216 374.03 58.6938 373.639C58.9661 373.248 59.1556 372.827 59.2625 372.378C59.3527 371.941 59.3636 371.497 59.2953 371.047C59.1986 370.591 59.0093 370.164 58.7276 369.765L55.7871 365.595L49.6956 369.892Z" fill="#D59A8A"/>
    <path d="M40.8974 356.694C39.7049 356.46 38.6553 355.998 37.7485 355.308C36.8417 354.618 36.034 353.619 35.3255 352.312C34.3453 350.504 33.9773 348.885 34.2217 347.455C34.4384 346.017 35.3077 344.885 36.8297 344.06C37.8503 343.507 38.8904 343.268 39.95 343.342C40.9917 343.426 41.9275 343.892 42.7575 344.739C42.3139 343.451 42.3106 342.248 42.7475 341.131C43.1748 339.996 44.0061 339.093 45.2416 338.424C46.119 337.948 47.008 337.686 47.9086 337.638C48.8092 337.59 49.6842 337.73 50.5334 338.057C51.355 338.376 52.1323 338.87 52.8653 339.539C53.5982 340.207 54.2267 341.025 54.7508 341.991C55.469 343.316 55.863 344.62 55.9327 345.903C55.9846 347.195 55.7335 348.42 55.1794 349.578L52.0855 348.614C52.4777 347.799 52.6872 346.967 52.7138 346.119C52.7404 345.27 52.5062 344.39 52.0113 343.476C51.7201 342.939 51.3816 342.486 50.9957 342.116C50.5919 341.755 50.1684 341.487 49.7251 341.31C49.2639 341.143 48.7878 341.077 48.2969 341.111C47.7962 341.128 47.3041 341.267 46.8207 341.529C45.8359 342.063 45.2615 342.884 45.0977 343.992C44.9063 345.092 45.2036 346.367 45.9897 347.817L46.9215 349.536L44.4774 350.861L43.6039 349.25C42.9245 347.996 42.1587 347.16 41.3064 346.742C40.4445 346.306 39.5838 346.321 38.7243 346.786C37.9364 347.213 37.4911 347.802 37.3884 348.553C37.2856 349.304 37.4672 350.109 37.933 350.968C38.3795 351.792 38.9345 352.452 39.598 352.95C40.2517 353.43 40.9816 353.729 41.7875 353.848L40.8974 356.694Z" fill="#D59A8A"/>
    <path d="M27.2833 335.736L26.076 332.997L42.4752 316.422L43.9289 319.721L39.4574 324.195L42.8329 331.855L49.14 331.546L50.6061 334.873L27.2833 335.736ZM37.4081 325.833L30.2859 332.777L40.2662 332.319L37.4081 325.833Z" fill="#D59A8A"/>
    <path d="M21.373 321.573L16.4615 306.819L19.3311 305.863L23.1522 317.342L28.6306 315.518L26.5367 309.228C26.2343 308.32 26.0898 307.434 26.103 306.571C26.0969 305.715 26.2614 304.919 26.5966 304.185C26.9254 303.432 27.4151 302.775 28.0658 302.215C28.7101 301.636 29.525 301.182 30.5105 300.854C31.4961 300.526 32.4268 300.388 33.3027 300.439C34.1592 300.498 34.9417 300.72 35.65 301.107C36.3583 301.494 36.9763 302.028 37.5042 302.711C38.0321 303.394 38.4472 304.19 38.7495 305.098L41.9531 314.721L21.373 321.573ZM35.9957 306.208C35.6484 305.164 35.0883 304.482 34.3156 304.159C33.5364 303.818 32.6347 303.817 31.6106 304.158C30.5864 304.499 29.8648 305.04 29.4459 305.78C29.0012 306.508 28.9526 307.393 29.3 308.437L31.3553 314.611L38.0511 312.382L35.9957 306.208Z" fill="#D59A8A"/>
    <path d="M34.0649 287.224C34.4069 288.734 34.4218 290.182 34.1094 291.568C33.7727 292.939 33.209 294.184 32.4184 295.303C31.6079 296.427 30.6134 297.383 29.4348 298.172C28.2517 298.941 26.9848 299.479 25.6341 299.785C24.2238 300.105 22.8146 300.152 21.4065 299.928C19.9984 299.705 18.6965 299.258 17.5008 298.589C16.3006 297.901 15.273 297.006 14.4179 295.905C13.5385 294.788 12.9322 293.495 12.5992 292.026C12.2571 290.516 12.2644 289.073 12.621 287.698C12.9532 286.307 13.5268 285.06 14.3418 283.956C15.1523 282.833 16.1491 281.886 17.3322 281.117C18.4909 280.333 19.7357 279.79 21.0665 279.488C22.4768 279.168 23.886 279.121 25.2941 279.345C26.6977 279.549 27.9997 279.995 29.1998 280.684C30.3802 281.377 31.41 282.282 32.2895 283.398C33.1445 284.499 33.7364 285.774 34.0649 287.224ZM24.8645 296.388C25.8577 296.163 26.785 295.786 27.6466 295.257C28.5081 294.727 29.2312 294.094 29.8157 293.356C30.3958 292.598 30.8098 291.752 31.0578 290.819C31.2859 289.89 31.2829 288.909 31.0489 287.876C30.8058 286.804 30.3736 285.91 29.7521 285.194C29.1062 284.464 28.3505 283.894 27.4851 283.484C26.6196 283.075 25.6963 282.824 24.715 282.733C23.7338 282.643 22.7665 282.705 21.8131 282.921C20.8001 283.151 19.8727 283.528 19.031 284.053C18.1694 284.582 17.4586 285.223 16.8984 285.977C16.3138 286.715 15.9075 287.548 15.6794 288.477C15.4269 289.39 15.4155 290.354 15.645 291.367C15.888 292.439 16.3325 293.341 16.9784 294.072C17.6044 294.807 18.3402 295.382 19.1858 295.796C20.0314 296.21 20.957 296.47 21.9625 296.576C22.9437 296.667 23.9111 296.604 24.8645 296.388Z" fill="#D59A8A"/>
    <path d="M10.8727 261.858L11.8145 269.006L30.3206 266.568L30.7716 269.99L12.2654 272.429L13.2112 279.607L10.2127 280.002L7.87419 262.253L10.8727 261.858Z" fill="#D59A8A"/>
    <path d="M13.8368 251.912C16.6137 252.018 18.9871 252.223 20.9569 252.527C22.9259 252.81 24.5444 253.241 25.8125 253.819C27.0602 254.398 27.9883 255.133 28.597 256.025C29.1853 256.917 29.5067 258.004 29.5611 259.286L26.4036 259.818C26.3344 259.148 26.1359 258.555 25.8082 258.039C25.4806 257.523 24.8608 257.09 23.9491 256.742C23.0365 256.373 21.7496 256.071 20.0884 255.836C18.4272 255.6 16.2285 255.429 13.4924 255.321L7.45739 255.057L6.9362 242.787L28.6072 241.867L28.7537 245.316L10.1044 246.108L10.3456 251.785L13.8368 251.912Z" fill="#D59A8A"/>
    <path d="M23.4892 233.595L7.79519 220.843L7.95246 218.129L29.6066 219.383L29.407 222.83L13.3341 221.898L28.7337 234.45L28.5658 237.347L6.91161 236.092L7.1113 232.646L23.4892 233.595Z" fill="#D59A8A"/>
    <path d="M27.2358 197.452C28.1006 197.59 28.8462 197.894 29.4724 198.365C30.1019 198.816 30.6099 199.381 30.9966 200.061C31.3663 200.718 31.6179 201.47 31.7513 202.316C31.8646 203.159 31.8492 204.033 31.7052 204.938L30.0772 215.166L8.65633 211.756L10.414 200.714C10.5325 199.969 10.8006 199.321 11.2185 198.769C11.6364 198.217 12.1404 197.771 12.7306 197.432C13.3006 197.09 13.9352 196.861 14.6341 196.745C15.3162 196.606 15.9891 196.59 16.6528 196.695C17.6987 196.862 18.641 197.29 19.4798 197.981C20.3017 198.648 20.8554 199.509 21.141 200.565C21.6984 199.396 22.5158 198.536 23.5933 197.986C24.6539 197.412 25.868 197.234 27.2358 197.452ZM26.0499 200.821C25.6074 200.75 25.1722 200.763 24.7443 200.86C24.3197 200.937 23.9357 201.082 23.5923 201.296C23.2522 201.489 22.9628 201.752 22.7242 202.085C22.4855 202.419 22.3326 202.796 22.2654 203.219L21.1416 210.279L27.6885 211.321L28.7787 204.472C28.8491 204.03 28.8343 203.605 28.7342 203.197C28.614 202.786 28.4355 202.417 28.1988 202.091C27.9419 201.761 27.6352 201.485 27.2786 201.264C26.902 201.039 26.4924 200.891 26.0499 200.821ZM12.1207 208.843L18.4263 209.846L19.4156 203.631C19.4828 203.209 19.4632 202.814 19.3567 202.447C19.2534 202.059 19.0919 201.713 18.872 201.41C18.6352 201.084 18.337 200.82 17.9772 200.618C17.6207 200.397 17.2111 200.249 16.7485 200.175C15.8233 200.028 15.0274 200.169 14.3609 200.6C13.6742 201.026 13.2669 201.642 13.1388 202.447L12.1207 208.843Z" fill="#D59A8A"/>
    <path d="M14.1163 183.268L14.8664 180.369L38.0083 177.523L37.105 181.013L30.8229 181.753L28.7256 189.857L33.8672 193.523L32.9564 197.043L14.1163 183.268ZM28.1997 181.769L18.3066 182.806L26.4239 188.63L28.1997 181.769Z" fill="#D59A8A"/>
    <path d="M42.4295 165.317L34.6929 162.546L33.261 166.544L39.3288 173.974L38.0205 177.627L31.6736 169.707C31.2375 170.2 30.7385 170.627 30.1764 170.988C29.6021 171.323 28.9908 171.58 28.3426 171.759C27.7013 171.919 27.0395 171.985 26.3573 171.957C25.6751 171.929 24.9888 171.791 24.2986 171.544C23.4933 171.255 22.7621 170.82 22.105 170.239C21.4548 169.638 20.9417 168.957 20.5656 168.195C20.1704 167.426 19.9376 166.596 19.8671 165.705C19.7844 164.789 19.9079 163.87 20.2375 162.95L23.1735 154.753L43.5936 162.067L42.4295 165.317ZM24.8279 159.013L23.1591 163.672C23.0011 164.113 22.9363 164.566 22.9647 165.03C22.993 165.495 23.1152 165.939 23.3313 166.362C23.5282 166.779 23.8128 167.162 24.1851 167.512C24.5451 167.835 24.9744 168.086 25.4729 168.265C25.9715 168.444 26.4591 168.532 26.9359 168.529C27.4126 168.527 27.8655 168.44 28.2945 168.27C28.7043 168.092 29.0737 167.846 29.4028 167.531C29.7196 167.19 29.9604 166.789 30.1252 166.329L31.8456 161.526L24.8279 159.013Z" fill="#D59A8A"/>
    <path d="M52.1979 143.841C51.4907 145.218 50.5722 146.337 49.4424 147.2C48.3039 148.034 47.0723 148.627 45.7477 148.977C44.405 149.317 43.0286 149.412 41.6184 149.26C40.2174 149.09 38.901 148.688 37.6691 148.055C36.3829 147.395 35.2719 146.526 34.3363 145.45C33.4007 144.374 32.6893 143.196 32.2023 141.916C31.7245 140.617 31.5114 139.271 31.563 137.878C31.6058 136.458 31.9715 135.077 32.6601 133.736C33.3673 132.36 34.2993 131.258 35.4559 130.433C36.6038 129.58 37.8444 128.993 39.1778 128.67C40.5205 128.329 41.8923 128.244 43.2932 128.414C44.6853 128.557 45.9883 128.94 47.2021 129.563C48.4883 130.224 49.5993 131.092 50.5349 132.168C51.4798 133.226 52.1912 134.404 52.6689 135.703C53.1286 136.992 53.337 138.347 53.2942 139.768C53.2427 141.161 52.8772 142.519 52.1979 143.841ZM39.2604 144.957C40.1662 145.423 41.1193 145.729 42.1197 145.877C43.12 146.024 44.0812 146.003 45.0033 145.812C45.9347 145.604 46.795 145.221 47.5844 144.665C48.3557 144.1 48.9833 143.346 49.4672 142.404C49.9697 141.426 50.2125 140.463 50.1954 139.515C50.1696 138.54 49.9565 137.618 49.556 136.748C49.1556 135.879 48.6085 135.094 47.9147 134.394C47.2209 133.694 46.4393 133.121 45.5697 132.674C44.6457 132.2 43.6926 131.893 42.7104 131.755C41.71 131.608 40.7532 131.643 39.84 131.861C38.9179 132.051 38.0712 132.429 37.3 132.994C36.5199 133.533 35.8925 134.263 35.4179 135.187C34.9154 136.166 34.6771 137.142 34.7029 138.117C34.7106 139.083 34.9057 139.996 35.288 140.856C35.6703 141.717 36.2128 142.51 36.9154 143.238C37.6091 143.937 38.3908 144.511 39.2604 144.957Z" fill="#D59A8A"/>
    <path d="M39.3563 121.56L48.9113 106.783L67.1256 118.561L65.2511 121.46L49.5765 111.324L43.7706 120.303L59.4451 130.438L57.5706 133.337L39.3563 121.56Z" fill="#D59A8A"/>
    <path d="M65.2103 90.628L60.7387 96.2836L75.3809 107.861L73.2398 110.569L58.5976 98.9915L54.107 104.671L51.7345 102.795L62.8379 88.7522L65.2103 90.628Z" fill="#D59A8A"/>
    <path d="M79.6371 94.6266L75.9624 74.7416L77.8427 72.7776L93.5109 87.7771L91.1236 90.2708L79.4938 79.1373L83.0746 98.6786L81.0676 100.775L65.3994 85.7755L67.7866 83.2819L79.6371 94.6266Z" fill="#D59A8A"/>
    <path d="M90.7141 73.4952L92.4245 72.017L91.6123 60.5651L94.5709 58.0081L95.5518 71.0102L109.286 73.9596L106.327 76.5166L94.6964 74.1318L92.7317 75.8298L98.8843 82.9489L96.2724 85.2062L82.0894 68.7952L84.7013 66.5379L90.7141 73.4952Z" fill="#D59A8A"/>
    <path d="M103.3 51.5339L105.734 49.7905L125.319 62.4427L122.389 64.5419L117.093 61.0829L110.288 65.9574L111.883 72.0671L108.928 74.1841L103.3 51.5339ZM115.07 59.4129L106.812 53.866L109.308 63.5402L115.07 59.4129Z" fill="#D59A8A"/>
    <path d="M126.96 48.5083C126.343 47.3601 125.937 46.1099 125.743 44.7579C125.538 43.388 125.59 42.0424 125.897 40.7213C126.213 39.3725 126.796 38.1116 127.645 36.9385C128.495 35.7654 129.646 34.7885 131.099 34.0077C132.839 33.0727 134.536 32.6584 136.188 32.7647C137.841 32.8711 139.313 33.3746 140.606 34.2751L139.091 37.1353C138.514 36.7058 137.93 36.3949 137.342 36.2026C136.753 36.0103 136.171 35.918 135.598 35.9258C135.024 35.9335 134.471 36.0227 133.938 36.1932C133.396 36.3458 132.9 36.5426 132.452 36.7836C131.447 37.3234 130.679 38.002 130.147 38.8195C129.606 39.6191 129.253 40.4906 129.089 41.4339C128.944 42.3676 128.958 43.3194 129.132 44.2893C129.324 45.2496 129.642 46.1423 130.086 46.9676C130.587 47.9006 131.217 48.7067 131.975 49.3861C132.733 50.0655 133.554 50.5835 134.44 50.9402C135.343 51.2873 136.277 51.4558 137.243 51.4456C138.199 51.4175 139.125 51.1625 140.022 50.6806C140.489 50.4299 140.935 50.1207 141.362 49.7528C141.797 49.3573 142.171 48.9135 142.484 48.4213C142.806 47.9016 143.05 47.3431 143.214 46.746C143.397 46.1392 143.464 45.4903 143.417 44.7992L146.686 44.8808C146.767 45.7623 146.678 46.6306 146.421 47.4856C146.154 48.3226 145.772 49.1175 145.274 49.8702C144.777 50.6229 144.187 51.31 143.503 51.9315C142.838 52.5433 142.128 53.0516 141.375 53.4565C140.029 54.1794 138.646 54.5526 137.225 54.5762C135.804 54.5997 134.445 54.3708 133.146 53.8896C131.837 53.3904 130.645 52.6782 129.57 51.753C128.485 50.8099 127.615 49.7283 126.96 48.5083Z" fill="#D59A8A"/>
    <path d="M148.084 25.9712L150.841 24.8049L167.169 41.4498L163.849 42.8541L159.442 38.3162L151.733 41.5771L151.947 47.8881L148.599 49.3043L148.084 25.9712ZM157.835 36.2427L150.998 29.0177L151.308 39.0037L157.835 36.2427Z" fill="#D59A8A"/>
    <path d="M185.522 35.7315L180.985 20.7945L178.254 33.9805L176.441 34.5311L166.808 25.1014L171.345 40.0383L168.072 41.0329L161.767 20.279L165.274 19.2134L175.998 29.8127L179.013 15.0397L182.521 13.9741L188.825 34.728L185.522 35.7315Z" fill="#D59A8A"/>
    <path d="M194.492 11.4695L197.433 10.9086L209.9 30.6123L206.359 31.2877L203.003 25.9252L194.781 27.4936L193.665 33.7089L190.094 34.39L194.492 11.4695ZM201.868 23.5604L196.701 15.0602L194.906 24.8883L201.868 23.5604Z" fill="#D59A8A"/>
    <path d="M223.616 29.2527L222.825 21.0729L218.599 21.4816L214.464 30.1378L210.602 30.5112L215.061 21.3941C214.429 21.2096 213.83 20.9401 213.264 20.5857C212.716 20.209 212.223 19.7656 211.785 19.2555C211.367 18.7434 211.025 18.1728 210.76 17.5437C210.494 16.9146 210.326 16.2352 210.256 15.5054C210.173 14.6539 210.255 13.8071 210.501 12.9648C210.767 12.1206 211.165 11.366 211.694 10.701C212.221 10.0157 212.872 9.45143 213.648 9.00812C214.442 8.54258 215.325 8.26276 216.298 8.16867L224.965 7.33065L227.052 28.9204L223.616 29.2527ZM221.817 10.6429L216.891 11.1193C216.424 11.1644 215.987 11.2987 215.579 11.5223C215.171 11.7459 214.822 12.0457 214.531 12.4217C214.238 12.7774 214.012 13.1982 213.855 13.6841C213.715 14.1477 213.671 14.6431 213.722 15.1702C213.773 15.6972 213.901 16.1759 214.106 16.6062C214.312 17.0365 214.583 17.4093 214.921 17.7245C215.256 18.0195 215.636 18.2487 216.061 18.4122C216.505 18.5535 216.97 18.6006 217.456 18.5536L222.534 18.0625L221.817 10.6429Z" fill="#D59A8A"/>
    <path d="M238.59 9.46766C239.386 8.54896 240.308 7.86749 241.357 7.42324C242.406 6.97898 243.674 6.77407 245.161 6.8085C247.217 6.85613 248.805 7.3411 249.925 8.26341C251.065 9.16582 251.615 10.4824 251.575 12.2131C251.548 13.3737 251.239 14.3953 250.648 15.278C250.058 16.1403 249.189 16.7212 248.041 17.0205C249.38 17.2756 250.425 17.8703 251.178 18.8045C251.951 19.7391 252.321 20.9089 252.288 22.3138C252.265 23.3115 252.051 24.2131 251.645 25.0186C251.239 25.8241 250.683 26.514 249.977 27.0885C249.292 27.643 248.478 28.0723 247.534 28.3764C246.589 28.6805 245.568 28.8198 244.468 28.7944C242.961 28.7595 241.634 28.4537 240.486 27.8771C239.339 27.2801 238.4 26.4536 237.671 25.3977L240.045 23.1914C240.557 23.9367 241.175 24.5316 241.898 24.9762C242.621 25.4207 243.502 25.655 244.54 25.6791C245.151 25.6932 245.713 25.6248 246.226 25.4737C246.739 25.3022 247.182 25.068 247.556 24.7711C247.93 24.4538 248.224 24.0735 248.438 23.6303C248.672 23.1875 248.796 22.6913 248.809 22.1415C248.835 21.0217 248.407 20.1154 247.527 19.4227C246.668 18.7102 245.413 18.3348 243.764 18.2966L241.809 18.2513L241.874 15.472L243.706 15.5144C245.131 15.5475 246.237 15.2981 247.024 14.7662C247.831 14.2349 248.245 13.4805 248.268 12.5032C248.289 11.6073 247.999 10.9283 247.398 10.4662C246.798 10.0041 246.009 9.76173 245.032 9.7391C244.095 9.7174 243.246 9.8709 242.485 10.1996C241.744 10.5288 241.121 11.0135 240.617 11.6537L238.59 9.46766Z" fill="#D59A8A"/>
    <path d="M262.921 7.95799L265.899 8.26907L272.153 30.731L268.568 30.3564L266.901 24.2541L258.576 23.3843L255.715 29.0137L252.099 28.6359L262.921 7.95799ZM266.497 21.6623L264.001 12.0331L259.447 20.9259L266.497 21.6623Z" fill="#D59A8A"/>
    <path d="M279.49 10.0012L294.73 13.0895L294.13 16.0537L282.273 13.651L281.126 19.3099L287.623 20.6265C288.562 20.8166 289.402 21.1323 290.143 21.5736C290.889 21.9949 291.497 22.5336 291.967 23.1899C292.456 23.8502 292.782 24.6019 292.944 25.4451C293.125 26.2924 293.113 27.225 292.906 28.243C292.7 29.261 292.356 30.1369 291.875 30.8706C291.398 31.5843 290.816 32.152 290.127 32.5737C289.439 32.9953 288.668 33.265 287.813 33.3826C286.958 33.5003 286.061 33.4641 285.123 33.2739L275.182 31.2596L279.49 10.0012ZM285.532 30.3332C286.61 30.5517 287.481 30.4061 288.145 29.8965C288.829 29.391 289.279 28.6092 289.493 27.5513C289.708 26.4934 289.598 25.5984 289.164 24.8663C288.755 24.1184 288.011 23.6352 286.933 23.4168L280.556 22.1244L279.154 29.0409L285.532 30.3332Z" fill="#D59A8A"/>
    <path d="M301.777 37.7185C300.296 37.2686 299.031 36.5648 297.981 35.6072C296.956 34.6361 296.153 33.5301 295.572 32.2893C294.997 31.0291 294.658 29.6916 294.556 28.2769C294.473 26.8682 294.633 25.5012 295.036 24.1761C295.456 22.7925 296.112 21.5443 297.003 20.4316C297.895 19.3188 298.927 18.4085 300.1 17.7005C301.292 16.9985 302.578 16.5484 303.958 16.3503C305.364 16.1387 306.787 16.2519 308.229 16.69C309.71 17.1399 310.96 17.8602 311.979 18.8508C313.023 19.8279 313.823 20.9436 314.379 22.198C314.954 23.4582 315.283 24.7927 315.365 26.2015C315.474 27.5967 315.33 28.9471 314.933 30.2527C314.513 31.6363 313.857 32.8845 312.965 33.9972C312.093 35.1159 311.061 36.0263 309.869 36.7283C308.682 37.4109 307.386 37.858 305.981 38.0696C304.601 38.2677 303.2 38.1506 301.777 37.7185ZM298.368 25.1884C298.072 26.1628 297.941 27.1553 297.974 28.1659C298.008 29.1765 298.201 30.1185 298.553 30.9917C298.924 31.8708 299.454 32.6491 300.142 33.3265C300.836 33.9843 301.69 34.4672 302.703 34.775C303.756 35.0947 304.746 35.1616 305.676 34.9756C306.63 34.776 307.5 34.4016 308.284 33.8522C309.068 33.3029 309.742 32.6244 310.307 31.8168C310.872 31.0092 311.296 30.1377 311.58 29.2023C311.882 28.2084 312.013 27.2159 311.974 26.2248C311.94 25.2142 311.735 24.279 311.357 23.4194C311.005 22.5461 310.482 21.7806 309.788 21.1227C309.12 20.4513 308.288 19.9646 307.294 19.6627C306.242 19.343 305.239 19.2829 304.284 19.4825C303.335 19.6626 302.472 20.0175 301.694 20.5474C300.915 21.0772 300.231 21.7528 299.641 22.5739C299.076 23.3816 298.652 24.2531 298.368 25.1884Z" fill="#D59A8A"/>
    <path d="M335.837 30.2833L329.165 27.5493L322.087 44.8213L318.893 43.5122L325.971 26.2402L319.271 23.4947L320.418 20.6961L336.983 27.4847L335.837 30.2833Z" fill="#D59A8A"/>
    <path d="M343.151 37.817C341.677 40.1731 340.319 42.13 339.075 43.6877C337.85 45.2549 336.671 46.4447 335.539 47.2571C334.416 48.0515 333.317 48.4909 332.241 48.5754C331.174 48.6419 330.071 48.3799 328.932 47.7894L330.041 44.7858C330.657 45.059 331.27 45.1818 331.881 45.1542C332.491 45.1267 333.175 44.8042 333.931 44.1867C334.705 43.5785 335.607 42.6124 336.637 41.2884C337.668 39.9643 338.91 38.1424 340.365 35.8225L343.596 30.7183L354.499 36.3701L344.517 55.6273L341.452 54.0386L350.043 37.4666L344.998 34.8516L343.151 37.817Z" fill="#D59A8A"/>
    <path d="M353.846 55.0201L372.708 47.7328L374.986 49.2175L363.142 67.3885L360.25 65.5034L369.041 52.0159L350.499 59.1474L348.067 57.5626L359.912 39.3916L362.804 41.2767L353.846 55.0201Z" fill="#D59A8A"/>
    <path d="M383.16 76.0091C382.611 76.6921 381.978 77.1889 381.258 77.4995C380.555 77.8228 379.812 77.9839 379.029 77.9826C378.276 77.9783 377.498 77.8244 376.697 77.521C375.909 77.2017 375.157 76.7552 374.442 76.1815L366.366 69.6992L379.942 52.783L388.662 59.7816C389.25 60.2533 389.68 60.8074 389.953 61.444C390.225 62.0806 390.362 62.7392 390.365 63.4199C390.379 64.0847 390.264 64.7493 390.018 65.4137C389.801 66.0749 389.482 66.6676 389.061 67.1918C388.398 68.0177 387.559 68.6239 386.544 69.0104C385.557 69.3937 384.534 69.4478 383.476 69.1726C384.215 70.2361 384.557 71.3722 384.501 72.5808C384.473 73.7862 384.026 74.929 383.16 76.0091ZM380.821 73.3098C381.102 72.9603 381.306 72.5758 381.434 72.1561C381.577 71.7492 381.642 71.3438 381.626 70.9398C381.627 70.5485 381.542 70.1667 381.371 69.7943C381.199 69.4219 380.947 69.1018 380.613 68.8341L375.038 64.3596L370.889 69.5298L376.297 73.8704C376.647 74.1509 377.023 74.3487 377.427 74.4638C377.844 74.5631 378.252 74.5908 378.653 74.5469C379.067 74.4871 379.458 74.3573 379.827 74.1575C380.209 73.9418 380.541 73.6592 380.821 73.3098ZM380.756 57.2358L376.759 62.2153L381.667 66.1544C382.001 66.4221 382.354 66.6008 382.726 66.6904C383.114 66.7928 383.494 66.8236 383.866 66.7829C384.267 66.739 384.644 66.6107 384.997 66.3982C385.366 66.1984 385.698 65.9158 385.991 65.5505C386.577 64.8198 386.849 64.0585 386.806 63.2664C386.775 62.4584 386.442 61.7995 385.807 61.2896L380.756 57.2358Z" fill="#D59A8A"/>
    <path d="M402.288 71.8794L404.436 73.9654L395.459 95.4842L392.873 92.9725L395.338 87.1467L389.333 81.3144L383.604 83.9686L380.996 81.4355L402.288 71.8794ZM396.622 84.8596L400.616 75.7493L391.538 79.9212L396.622 84.8596Z" fill="#D59A8A"/>
    <path d="M403.371 104.735L409.589 99.3611L406.812 96.1483L397.359 97.7774L394.822 94.8419L404.839 93.2105C404.624 92.5884 404.498 91.9439 404.46 91.2769C404.45 90.612 404.527 89.9533 404.69 89.301C404.867 88.6641 405.135 88.0555 405.495 87.4752C405.854 86.895 406.312 86.3651 406.867 85.8857C407.514 85.3264 408.252 84.9036 409.082 84.6175C409.924 84.3467 410.77 84.235 411.618 84.2824C412.482 84.3164 413.319 84.5218 414.129 84.8984C414.968 85.2772 415.707 85.8364 416.346 86.576L422.04 93.1635L405.629 107.347L403.371 104.735ZM417.517 92.5093L414.281 88.7648C413.975 88.4104 413.612 88.1313 413.194 87.9276C412.776 87.7239 412.329 87.6119 411.854 87.5918C411.394 87.5583 410.921 87.6177 410.433 87.7699C409.974 87.9242 409.544 88.1744 409.144 88.5207C408.743 88.8669 408.427 89.2482 408.194 89.6645C407.962 90.0807 407.814 90.5176 407.752 90.9752C407.705 91.4194 407.738 91.8622 407.85 92.3035C407.991 92.747 408.222 93.1536 408.541 93.5234L411.877 97.3835L417.517 92.5093Z" fill="#D59A8A"/>
    <path d="M417.753 124.415C416.903 123.122 416.381 121.771 416.187 120.363C416.022 118.961 416.113 117.597 416.46 116.272C416.825 114.936 417.421 113.692 418.248 112.539C419.086 111.404 420.083 110.456 421.241 109.695C422.449 108.901 423.752 108.362 425.149 108.077C426.546 107.793 427.922 107.754 429.277 107.961C430.642 108.185 431.918 108.662 433.105 109.393C434.321 110.13 435.342 111.128 436.17 112.387C437.02 113.681 437.519 115.034 437.668 116.448C437.845 117.867 437.745 119.236 437.369 120.555C437.004 121.892 436.403 123.127 435.565 124.263C434.755 125.404 433.78 126.35 432.64 127.099C431.431 127.893 430.128 128.432 428.731 128.717C427.345 129.018 425.97 129.057 424.604 128.833C423.256 128.598 421.974 128.112 420.758 127.375C419.571 126.644 418.57 125.658 417.753 124.415ZM423.153 112.606C422.302 113.165 421.566 113.843 420.945 114.641C420.324 115.439 419.869 116.287 419.581 117.183C419.304 118.096 419.213 119.033 419.308 119.994C419.42 120.944 419.767 121.861 420.349 122.746C420.953 123.665 421.671 124.351 422.504 124.803C423.365 125.26 424.273 125.529 425.227 125.609C426.181 125.689 427.134 125.599 428.084 125.34C429.035 125.081 429.919 124.683 430.736 124.146C431.604 123.576 432.34 122.897 432.944 122.11C433.565 121.312 434.006 120.462 434.266 119.56C434.555 118.664 434.643 117.741 434.53 116.791C434.446 115.847 434.119 114.941 433.549 114.073C432.945 113.154 432.212 112.466 431.351 112.008C430.507 111.539 429.616 111.259 428.679 111.168C427.742 111.077 426.784 111.158 425.805 111.412C424.854 111.671 423.97 112.069 423.153 112.606Z" fill="#D59A8A"/>
    <path d="M443.51 124.279L451.665 139.872L432.445 149.925L430.845 146.866L447.385 138.215L442.43 128.74L425.89 137.391L424.29 134.332L443.51 124.279Z" fill="#D59A8A"/>
    <path d="M457.786 162.295L455.077 155.613L437.779 162.627L436.481 159.428L453.78 152.414L451.059 145.704L453.862 144.568L460.589 161.158L457.786 162.295Z" fill="#D59A8A"/>
    <path d="M447.013 172.389L466.122 179.005L466.902 181.61L446.125 187.836L445.134 184.529L460.556 179.908L441.793 173.38L440.96 170.599L461.737 164.373L462.728 167.68L447.013 172.389Z" fill="#D59A8A"/>
    <path d="M460.149 193.568L460.581 195.787L470.921 200.777L471.668 204.615L459.9 199.001L450.512 209.45L449.765 205.612L457.617 196.707L457.121 194.158L447.885 195.956L447.225 192.568L468.516 188.422L469.175 191.811L460.149 193.568Z" fill="#D59A8A"/>
    <path d="M472.793 214.431L473.104 217.408L452.42 228.17L452.045 224.584L457.671 221.693L456.802 213.367L450.702 211.732L450.325 208.116L472.793 214.431ZM460.123 220.761L469.029 216.329L459.387 213.712L460.123 220.761Z" fill="#D59A8A"/>
</svg>
