<svg width="73" height="62" viewBox="0 0 73 62" fill="none" xmlns="http://www.w3.org/2000/svg">
    <path d="M18.9252 20.2991C15.9155 20.2991 13.1863 21.5233 11.2096 23.4999C9.23294 25.4764 8.00868 28.2053 8.00868 31.215C8.00868 34.2246 9.23294 36.9536 11.2096 38.9301C13.1863 40.9066 15.9155 42.1308 18.9252 42.1308C21.9349 42.1308 24.6639 40.9067 26.6404 38.9302C28.6169 36.9537 29.841 34.2247 29.841 31.215C29.841 28.2053 28.6169 25.4763 26.6404 23.4998C24.6639 21.5233 21.9349 20.2991 18.9252 20.2991ZM32.085 29.4297H40.5402V30.0636C40.8166 26.8606 42.2346 23.979 44.3845 21.8292C46.7891 19.4246 50.109 17.9353 53.7703 17.9353C57.4315 17.9353 60.7515 19.4246 63.1561 21.8292C64.7055 23.3786 65.8748 25.3081 66.5105 27.4641H69.8215C70.4466 27.4641 70.954 27.9708 70.954 28.5961V32.5354C70.954 33.1614 70.4466 33.6681 69.8215 33.6681H66.8226C66.3201 36.3478 65.0103 38.7465 63.156 40.6008C60.7515 43.0054 57.4315 44.4947 53.7702 44.4947C50.109 44.4947 46.789 43.0053 44.3844 40.6008C42.1114 38.3277 40.6565 35.2366 40.5041 31.8124H32.1912C32.0388 35.2366 30.5839 38.3277 28.3109 40.6008C25.9063 43.0054 22.5864 44.4947 18.9252 44.4947C12.4404 44.4947 7.0269 39.8227 5.8728 33.6681H2.90049C2.27528 33.6681 1.76855 33.1614 1.76855 32.5354V28.5961C1.76855 27.9708 2.27528 27.4641 2.90049 27.4641H6.18422C6.82001 25.3082 7.98936 23.3786 9.53888 21.8292C11.9436 19.4246 15.2638 17.9353 18.9252 17.9353C22.5864 17.9353 25.9063 19.4246 28.3109 21.8292C30.3179 23.8362 31.687 26.4811 32.0849 29.4298L32.085 29.4297ZM67.0486 31.4035H68.6894V29.7285H66.9671C67.0218 30.2166 67.05 30.7126 67.05 31.215C67.05 31.2779 67.0494 31.3407 67.0486 31.4035ZM4.03252 31.4035H5.64723C5.64635 31.3407 5.64481 31.278 5.64481 31.215C5.64481 30.7125 5.67304 30.2166 5.72763 29.7285H4.03249V31.4035H4.03252ZM53.7703 20.2992C50.7606 20.2992 48.0314 21.5233 46.0547 23.4999C44.078 25.4764 42.8537 28.2054 42.8537 31.215C42.8537 34.2246 44.078 36.9536 46.0547 38.9301C48.0314 40.9067 50.7606 42.1308 53.7703 42.1308C56.78 42.1308 59.5093 40.9067 61.4859 38.9301C63.4626 36.9536 64.6868 34.2246 64.6868 31.215C64.6868 28.2054 63.4626 25.4764 61.4859 23.4999C59.5092 21.5233 56.78 20.2992 53.7703 20.2992Z"
          fill="white"/>
</svg>
