<svg width="96" height="37" viewBox="0 0 96 37" fill="none" xmlns="http://www.w3.org/2000/svg">
<path d="M23.6714 3.26142C19.5188 3.26142 15.7533 4.95041 13.026 7.67753C10.2987 10.4045 8.60961 14.1697 8.60961 18.3222C8.60961 22.4746 10.2987 26.2398 13.026 28.9668C15.7533 31.694 19.5188 33.3829 23.6714 33.3829C27.8239 33.3829 31.5891 31.694 34.3161 28.967C37.0432 26.24 38.7321 22.4747 38.7321 18.3222C38.7321 14.1697 37.0432 10.4045 34.3161 7.67738C31.5891 4.95036 27.8239 3.26142 23.6714 3.26142V3.26142ZM41.8281 15.8591H53.494V16.7336C53.8753 12.3144 55.8317 8.33864 58.7979 5.37243C62.1156 2.05478 66.6962 0 71.7477 0C76.7992 0 81.3798 2.05483 84.6975 5.37243C86.8352 7.51023 88.4485 10.1724 89.3256 13.1471H93.8939C94.7563 13.1471 95.4564 13.8462 95.4564 14.7088V20.1441C95.4564 21.0077 94.7563 21.7068 93.8939 21.7068H89.7562C89.0629 25.4041 87.2558 28.7136 84.6974 31.272C81.3798 34.5896 76.7992 36.6444 71.7476 36.6444C66.6961 36.6444 62.1155 34.5896 58.7979 31.272C55.6617 28.1358 53.6543 23.8709 53.4441 19.1465H41.9746C41.7644 23.8709 39.7571 28.1358 36.6209 31.272C33.3033 34.5896 28.7228 36.6444 23.6713 36.6444C14.7242 36.6444 7.25503 30.1984 5.6627 21.7068H1.56175C0.699136 21.7068 0 21.0077 0 20.1441V14.7088C0 13.8462 0.699136 13.1471 1.56175 13.1471H6.09237C6.96959 10.1725 8.58295 7.51028 10.7209 5.37252C14.0387 2.05483 18.6196 0 23.6713 0C28.7228 0 33.3033 2.05478 36.6209 5.37243C39.39 8.14159 41.279 11.7907 41.828 15.8591L41.8281 15.8591ZM90.068 18.5823H92.3319V16.2713H89.9557C90.031 16.9448 90.0699 17.629 90.0699 18.3222C90.0699 18.409 90.0692 18.4957 90.068 18.5823ZM3.12364 18.5823H5.35148C5.35027 18.4956 5.34814 18.4092 5.34814 18.3222C5.34814 17.6289 5.38709 16.9448 5.46241 16.2713H3.12359V18.5823H3.12364ZM71.7477 3.26147C67.5952 3.26147 63.8296 4.95046 61.1023 7.67757C58.3751 10.4046 56.686 14.1698 56.686 18.3222C56.686 22.4747 58.3751 26.2399 61.1023 28.9669C63.8296 31.694 67.5952 33.383 71.7477 33.383C75.9003 33.383 79.6659 31.694 82.3931 28.9668C85.1203 26.2398 86.8095 22.4747 86.8095 18.3222C86.8095 14.1698 85.1203 10.4046 82.3931 7.67762C79.6658 4.95046 75.9003 3.26147 71.7477 3.26147V3.26147Z" fill="white"/>
</svg>
