<svg width="73" height="62" viewBox="0 0 73 62" fill="none" xmlns="http://www.w3.org/2000/svg">
    <path d="M36.4155 2.00073C42.2499 2.00073 47.5453 3.98374 51.3906 7.18961C55.2963 10.4461 57.712 14.9585 57.712 19.955L57.7118 19.972V55.2434C57.7118 55.9014 57.1783 56.4348 56.5204 56.4348C56.3518 56.4348 56.1917 56.3998 56.0463 56.3367C53.7584 55.4971 51.4708 54.6565 49.1826 53.8182C47.1457 53.0717 45.4335 52.4442 44.0325 51.8029L37.3547 60.0867C37.2989 60.1584 37.2341 60.2249 37.1602 60.2843C36.6487 60.6954 35.9007 60.6143 35.4896 60.1028L28.7998 51.804C27.3993 52.445 25.688 53.0721 23.6523 53.818C21.3414 54.6648 19.0312 55.5136 16.7205 56.3614C16.1037 56.5877 15.4202 56.2709 15.1942 55.6541C15.1446 55.5189 15.1211 55.3807 15.1211 55.2445H15.1197V19.9829C15.1197 19.9553 15.1206 19.928 15.1225 19.9011C15.1191 19.7336 15.1172 19.8143 15.1172 19.7249C15.1172 14.8353 17.4989 10.4274 21.334 7.22685C25.1037 4.0808 30.2923 2.10372 35.9875 2.00883C36.31 2.00354 36.3784 2.00073 36.4155 2.00073ZM41.9098 50.6492C40.0361 49.391 39.1379 47.8413 39.1379 45.2344V44.7318C38.4172 44.866 37.6783 44.9476 36.9248 44.9732C36.8949 44.9743 36.865 44.9752 36.8351 44.976C36.814 44.9766 36.7932 44.9772 36.7721 44.9777C36.7195 44.9789 36.6667 44.98 36.6138 44.9806L36.5994 44.9808C36.5381 44.9816 36.4771 44.982 36.4158 44.982C36.3547 44.982 36.2937 44.9817 36.2326 44.981L36.2173 44.9808C36.1653 44.98 36.1133 44.9791 36.0612 44.9778C36.0394 44.9774 36.0178 44.9767 35.9959 44.9761C35.9662 44.9753 35.9364 44.9744 35.9067 44.9733C35.1545 44.9479 34.4165 44.8663 33.6968 44.7325V45.2344C33.6968 47.8422 32.7979 49.3922 30.9228 50.6508L36.4157 57.4646L41.9098 50.6492ZM28.326 49.3631C28.3328 49.3573 28.3397 49.3517 28.3467 49.3461C28.4685 49.2481 28.6038 49.1782 28.7446 49.1353C30.4824 48.144 31.3142 47.0394 31.3142 45.2344V44.0787C29.2813 43.3318 27.4579 42.1513 25.9558 40.6493C23.2789 37.9723 21.623 34.274 21.623 30.1893H21.6277L21.6279 23.8115C21.6279 23.1937 22.0999 22.6863 22.7029 22.6301C25.8779 22.3241 28.8351 21.2335 31.3938 19.5473C34.027 17.812 36.2398 15.4431 37.8361 12.6448C38.1598 12.0742 38.8851 11.8742 39.4556 12.1979C39.6937 12.3332 39.8672 12.5382 39.9651 12.7727C40.8913 14.7711 42.3287 16.4628 44.1 17.6632C45.8216 18.83 47.8596 19.5323 50.0496 19.5995C50.6942 19.6172 51.2046 20.1454 51.2042 20.7862H51.2085V30.1891C51.2085 34.2738 49.5526 37.972 46.8757 40.6491C45.3746 42.1502 43.5522 43.3303 41.5207 44.0773V45.2343C41.5207 47.0405 42.3538 48.1454 44.0941 49.1374C44.2324 49.1805 44.365 49.2497 44.4846 49.346C44.4896 49.35 44.4945 49.3541 44.4994 49.3581C45.8505 50.0626 47.6751 50.7315 50.0016 51.584C51.7777 52.2348 53.5532 52.8871 55.329 53.5388V19.9689L55.3293 19.955C55.3293 15.6936 53.2444 11.8245 49.8736 9.01386C46.4423 6.15293 41.6851 4.38336 36.4157 4.38336C36.105 4.38336 36.0751 4.38134 36.0249 4.38212C30.8932 4.4675 26.233 6.23659 22.8607 9.05094C19.5537 11.8108 17.5 15.5774 17.5 19.7247C17.5 19.842 17.499 19.8727 17.4981 19.8829C17.5009 19.9159 17.5023 19.9491 17.5023 19.9829V53.5402C19.2792 52.8882 21.0559 52.2354 22.8333 51.5842C25.1545 50.7335 26.9757 50.0659 28.326 49.3631ZM45.191 38.9646C47.4367 36.7189 48.8257 33.6164 48.8257 30.1893V21.8877C46.6082 21.629 44.5481 20.8328 42.769 19.627C41.1976 18.5621 39.846 17.1776 38.8002 15.5626C37.1526 17.9301 35.0795 19.9592 32.6966 21.5296C30.1122 23.2328 27.1645 24.3948 24.001 24.8622L24.0008 30.1893H24.0055C24.0055 33.6164 25.3946 36.7189 27.6403 38.9646C29.886 41.2103 32.9886 42.5994 36.4157 42.5994C37.6413 42.5994 38.8256 42.4216 39.944 42.0906C39.971 42.0814 39.9986 42.0731 40.0263 42.0658C42.0014 41.4661 43.7683 40.3874 45.191 38.9646Z" fill="white"/>
</svg>
