<svg width="59" height="81" viewBox="0 0 59 81" fill="none" xmlns="http://www.w3.org/2000/svg">
<path d="M29.3857 0C37.4354 0 44.7417 2.73599 50.047 7.15919C55.4358 11.6523 58.7688 17.8781 58.7688 24.7718L58.7686 24.7952V73.4599C58.7686 74.3677 58.0325 75.1037 57.1248 75.1037C56.8922 75.1037 56.6712 75.0553 56.4706 74.9683C53.314 73.8098 50.1578 72.6501 47.0007 71.4934C44.1903 70.4636 41.8279 69.5977 39.895 68.713L30.6814 80.1423C30.6045 80.2412 30.5151 80.333 30.4132 80.4149C29.7075 80.9821 28.6755 80.8702 28.1082 80.1644L18.8781 68.7145C16.9458 69.5988 14.5847 70.464 11.7761 71.4932C8.58759 72.6615 5.40019 73.8326 2.21214 75.0024C1.36112 75.3145 0.418094 74.8775 0.106189 74.0265C0.0378327 73.8399 0.00537396 73.6493 0.00537396 73.4614H0.00343933V24.8103C0.00343933 24.7722 0.00472909 24.7346 0.00730859 24.6974C0.0025795 24.4664 0 24.5777 0 24.4543C0 17.7081 3.28607 11.6265 8.57749 7.21057C13.7786 2.86991 20.9374 0.142088 28.7952 0.0111778C29.2401 0.00386925 29.3345 0 29.3857 0V0ZM36.9662 67.1212C34.3811 65.3852 33.1419 63.247 33.1419 59.6503V58.9569C32.1475 59.1419 31.1279 59.2546 30.0884 59.2898C30.0471 59.2913 30.0058 59.2926 29.9646 59.2937C29.9355 59.2946 29.9067 59.2954 29.8777 59.2961C29.8051 59.2978 29.7322 59.2993 29.6593 59.3001L29.6393 59.3004C29.5548 59.3014 29.4706 59.3021 29.3861 59.3021C29.3018 59.3021 29.2176 59.3017 29.1333 59.3006L29.1122 59.3004C29.0405 59.2993 28.9687 59.298 28.8969 59.2963C28.8668 59.2956 28.8369 59.2948 28.8068 59.2939C28.7657 59.2928 28.7247 59.2915 28.6836 59.29C27.6458 59.255 26.6275 59.1424 25.6347 58.9577V59.6503C25.6347 63.2483 24.3943 65.3869 21.8073 67.1233L29.3859 76.5246L36.9662 67.1212V67.1212ZM18.2244 65.3467C18.2338 65.3388 18.2433 65.331 18.253 65.3233C18.4211 65.1881 18.6077 65.0916 18.802 65.0324C21.1996 63.6647 22.3473 62.1406 22.3473 59.6503V58.0558C19.5425 57.0252 17.0266 55.3965 14.9542 53.3241C11.2608 49.6307 8.97623 44.528 8.97623 38.8922H8.98268L8.9829 30.0927C8.9829 29.2404 9.63422 28.5402 10.4661 28.4626V28.4618C14.8467 28.0396 18.9269 26.5358 22.4571 24.2093C26.0901 21.8151 29.1432 18.5466 31.3457 14.6857C31.7923 13.8986 32.793 13.6226 33.5802 14.0692C33.9086 14.2558 34.1481 14.5387 34.2831 14.8622C35.561 17.6195 37.5442 19.9535 39.9881 21.6098C42.3634 23.2196 45.1752 24.1886 48.1969 24.2813C49.0862 24.3058 49.7904 25.0345 49.79 25.9186H49.7958V38.892C49.7958 44.5278 47.5112 49.6302 43.8178 53.3239C41.7466 55.395 39.2323 57.0231 36.4294 58.0538V59.6501C36.4294 62.1421 37.5788 63.6666 39.9799 65.0352C40.1708 65.0948 40.3537 65.1902 40.5188 65.3231C40.5257 65.3287 40.5323 65.3342 40.5392 65.3398C42.4033 66.3119 44.9207 67.2347 48.1307 68.4109C50.5812 69.3088 53.0309 70.2089 55.481 71.108V24.7909H55.4816L55.4814 24.7718C55.4814 18.8923 52.6048 13.554 47.954 9.67614C43.2198 5.72886 36.6562 3.28736 29.3859 3.28736C28.9573 3.28736 28.916 3.28456 28.8468 3.28564C21.7665 3.40344 15.3366 5.84429 10.6839 9.7273C6.12116 13.5351 3.28757 18.7319 3.28757 24.4541C3.28757 24.616 3.28628 24.6583 3.28499 24.6723C3.28886 24.7179 3.2908 24.7636 3.2908 24.8103V71.11C5.7424 70.2104 8.19378 69.3097 10.646 68.4112C13.8487 67.2375 16.3616 66.3164 18.2246 65.3467H18.2244ZM41.4934 50.9997C44.5918 47.9013 46.5082 43.6207 46.5082 38.8922V27.4384C43.4487 27.0815 40.6063 25.9829 38.1517 24.3193C35.9836 22.8501 34.1188 20.9397 32.6758 18.7115C30.4026 21.978 27.5424 24.7776 24.2546 26.9444C20.6889 29.2943 16.6219 30.8975 12.2571 31.5424L12.2569 38.8922H12.2634C12.2634 43.6207 14.1799 47.9013 17.2784 50.9997C20.3768 54.0982 24.6575 56.0147 29.3859 56.0147C31.077 56.0147 32.7109 55.7695 34.2541 55.3127C34.2912 55.3 34.3293 55.2886 34.3676 55.2785C37.0926 54.4511 39.5302 52.9627 41.4932 50.9997H41.4934Z" fill="white"/>
</svg>
