<svg width="64" height="64" viewBox="0 0 64 64" fill="none" xmlns="http://www.w3.org/2000/svg">
<path d="M31.1195 60.6278H32.7134L33.7656 53.6172C33.8175 53.2699 33.9799 52.9594 34.2161 52.7229C34.4541 52.4846 34.7649 52.32 35.1107 52.2672C35.8361 52.1569 36.5499 52.008 37.2473 51.8225C37.9586 51.633 38.6573 51.4066 39.3376 51.1446C39.665 51.0181 40.0117 51.0037 40.3286 51.0897C40.6505 51.1769 40.9459 51.3642 41.1658 51.6394L45.5862 57.1841L46.9651 56.3902L44.3651 49.7764C44.2379 49.4534 44.2235 49.1063 44.3085 48.7851C44.3933 48.4644 44.5776 48.1696 44.8482 47.9503L44.8528 47.9466L44.8525 47.946C45.4212 47.4887 45.9657 47.0001 46.4826 46.4842C46.9983 45.9691 47.4884 45.4243 47.9491 44.8534C48.1681 44.5803 48.4651 44.3939 48.7881 44.3082C49.1134 44.2219 49.465 44.2379 49.7909 44.3703L49.8188 44.382L56.3868 46.966L57.1859 45.5825L51.6357 41.1625C51.3606 40.9429 51.1726 40.6471 51.0854 40.3246C50.9994 40.0068 51.0135 39.66 51.1407 39.3333C51.4011 38.6592 51.6284 37.9605 51.8209 37.2421C52.0086 36.541 52.1584 35.83 52.2687 35.1138C52.3215 34.7674 52.4858 34.4572 52.7241 34.2198C52.9603 33.9842 53.2696 33.8227 53.6145 33.7702V33.7696L60.6312 32.7137V31.1198L53.6145 30.0642C53.5905 30.0605 53.5669 30.0562 53.5435 30.051C53.2269 29.988 52.944 29.8326 52.7244 29.6137C52.4861 29.3763 52.3218 29.0661 52.2687 28.7196C52.1584 28.0031 52.0086 27.2913 51.8206 26.5898C51.628 25.8718 51.4008 25.1731 51.14 24.499C51.0129 24.1691 50.9991 23.8208 51.0854 23.5033C51.1723 23.1839 51.3602 22.8897 51.6354 22.6701L57.1856 18.2507L56.3865 16.8674L49.778 19.4672C49.7583 19.4748 49.7384 19.4819 49.7187 19.4884C49.4128 19.5952 49.0885 19.6038 48.7878 19.5246C48.466 19.4395 48.1693 19.2537 47.9491 18.9807C47.4878 18.4091 46.9974 17.8637 46.4814 17.3484C45.9648 16.8324 45.4206 16.3441 44.8525 15.8874C44.8356 15.8739 44.8193 15.8601 44.8036 15.8457C44.5573 15.631 44.3887 15.3518 44.3085 15.0487C44.2238 14.7281 44.2382 14.3813 44.3651 14.057L46.9654 7.44388L45.5843 6.6463L41.1658 12.195C41.1505 12.2146 41.1342 12.2334 41.1176 12.2515C40.9039 12.4953 40.6275 12.6633 40.3283 12.7441C40.0098 12.8304 39.665 12.8178 39.3419 12.694C39.3182 12.6851 39.2949 12.675 39.2722 12.6645C38.6211 12.4164 37.9448 12.1983 37.248 12.0119C36.5253 11.8187 35.8106 11.6667 35.1095 11.5574L35.1089 11.5608C34.7628 11.5076 34.4529 11.3436 34.2155 11.1056C33.9805 10.8698 33.8187 10.5611 33.7662 10.2159H33.7656L32.7128 3.20476H31.1201L30.0673 10.2159C30.0636 10.2396 30.0593 10.2626 30.0544 10.2856C29.9917 10.6026 29.8363 10.8857 29.6173 11.1056C29.3799 11.3439 29.0698 11.5076 28.7236 11.5608C28.6969 11.5648 28.6702 11.5678 28.6435 11.5697C27.9669 11.6778 27.279 11.8255 26.5849 12.0113C25.8653 12.2039 25.1682 12.4305 24.499 12.6894L24.4937 12.6913L24.4947 12.6937C24.1719 12.8175 23.8261 12.8301 23.5073 12.7441C23.1854 12.6569 22.8897 12.4698 22.6701 12.195L18.2491 6.64446L16.8665 7.44234L19.4669 14.057C19.594 14.381 19.6084 14.7277 19.5237 15.0484C19.4386 15.3696 19.2543 15.6638 18.9838 15.8831L18.9792 15.8868L18.9795 15.8874C18.4294 16.3297 17.888 16.8171 17.3594 17.3453C16.8303 17.8745 16.338 18.4208 15.8859 18.9807C15.6657 19.254 15.3696 19.4398 15.0475 19.5249C14.729 19.6087 14.3825 19.5934 14.057 19.4653L14.0561 19.4675L7.44449 16.8671L6.64722 18.2491L12.1962 22.6636C12.4714 22.8829 12.6593 23.1768 12.7462 23.4962C12.8322 23.8119 12.8184 24.1581 12.6916 24.4873C12.4357 25.1531 12.2091 25.8533 12.0135 26.584C11.8194 27.3088 11.6667 28.0243 11.5568 28.7258C11.5024 29.0728 11.34 29.3812 11.1053 29.6146C10.8691 29.8495 10.5611 30.0111 10.2159 30.0633V30.0639L3.20353 31.1195V32.7137L10.2159 33.7696C10.2396 33.7732 10.2629 33.7775 10.2859 33.7825C10.6026 33.8451 10.8854 33.9999 11.1056 34.2192C11.3406 34.4526 11.5027 34.7606 11.5568 35.108C11.6673 35.8122 11.8203 36.5296 12.0147 37.2547C12.2072 37.9718 12.433 38.6665 12.6913 39.3336C12.8184 39.6628 12.8325 40.0108 12.7459 40.3293C12.6602 40.6447 12.4726 40.937 12.1959 41.1585L12.1937 41.16L12.1959 41.1628L6.6463 45.5843L7.44388 46.9669L14.0555 44.366C14.0751 44.3583 14.0948 44.3512 14.1144 44.3448C14.4219 44.237 14.7459 44.2287 15.0462 44.3082C15.3696 44.3939 15.6663 44.5803 15.885 44.8534C16.3493 45.4283 16.841 45.9753 17.356 46.4903L17.3582 46.4925L17.3603 46.4903C17.888 47.0179 18.4288 47.5044 18.9782 47.9457C18.9951 47.9592 19.0114 47.9734 19.0271 47.9875C19.2734 48.2022 19.4423 48.482 19.5224 48.7848C19.6075 49.106 19.5931 49.4531 19.4656 49.7761L16.8653 56.3914L18.247 57.1887L22.6688 51.6336C22.6959 51.5995 22.7244 51.5679 22.7545 51.5378C22.9637 51.3129 23.2253 51.1582 23.5067 51.0826C23.8285 50.996 24.1774 51.0107 24.5036 51.1394C25.1786 51.4029 25.8724 51.6299 26.58 51.8194C27.2811 52.007 27.9961 52.1566 28.7206 52.2665C29.0661 52.3197 29.3772 52.484 29.6152 52.7223C29.8514 52.9588 30.0138 53.269 30.0657 53.6163L31.1179 60.6269L31.1195 60.6278ZM29.828 46.6079C28.2218 46.3807 26.6967 45.8945 25.2962 45.1937C23.8574 44.4735 22.5528 43.5279 21.4296 42.4044C20.0614 41.0362 18.9586 39.4014 18.2052 37.5855C17.4801 35.8374 17.0796 33.9222 17.0796 31.9167C17.0796 29.9113 17.4801 27.9964 18.2052 26.248C18.9586 24.432 20.0617 22.7975 21.4296 21.429C22.7978 20.0608 24.432 18.9574 26.2477 18.204C27.9958 17.4789 29.9103 17.0784 31.9155 17.0784C33.9213 17.0784 35.8365 17.4789 37.5849 18.2043C39.4011 18.9577 41.0359 20.0608 42.4044 21.4293C43.7729 22.7975 44.8764 24.4323 45.6298 26.2483C46.3552 27.9964 46.7557 29.9113 46.7557 31.917C46.7557 33.9228 46.3552 35.8377 45.6298 37.5858C44.8764 39.4018 43.7729 41.0362 42.4044 42.4047C41.2807 43.5282 39.9758 44.4735 38.5366 45.194C37.1359 45.8951 35.6104 46.381 34.0036 46.6082C33.6593 46.6571 33.3123 46.6939 32.9628 46.7182C32.6127 46.7428 32.2632 46.7553 31.9152 46.7553C31.5672 46.7553 31.2177 46.7428 30.8676 46.7182C30.5184 46.6936 30.1714 46.6568 29.8271 46.6082L29.828 46.6079ZM31.9158 20.5104C30.3729 20.5104 28.9015 20.8179 27.5594 21.375C26.1644 21.9536 24.908 22.8024 23.8546 23.8555C22.8015 24.9086 21.953 26.1654 21.374 27.5603C20.8172 28.9024 20.5098 30.3741 20.5098 31.917C20.5098 33.4603 20.8172 34.932 21.374 36.2741C21.9527 37.669 22.8015 38.9257 23.8546 39.9791C24.9077 41.0325 26.1644 41.8811 27.5594 42.46C28.9015 43.0168 30.3729 43.3245 31.9158 43.3245C33.4594 43.3245 34.9314 43.0171 36.2738 42.46C37.669 41.8814 38.926 41.0325 39.9794 39.9794H39.9804C41.0325 38.9273 41.8811 37.6705 42.4606 36.2744C43.0177 34.9323 43.3252 33.4603 43.3252 31.917C43.3252 30.3725 43.018 28.9002 42.4616 27.5581C41.8829 26.162 41.0353 24.9059 39.9844 23.8552C38.9316 22.8028 37.6736 21.9539 36.2765 21.3747C34.9335 20.8179 33.4603 20.5104 31.9155 20.5104H31.9158ZM34.0911 63.8335H29.7414C29.3492 63.8335 28.9828 63.6876 28.6975 63.4428L28.6954 63.4453C28.4144 63.2033 28.2169 62.8624 28.1579 62.4686H28.1573L27.0698 55.2235C26.626 55.1322 26.1875 55.0287 25.7551 54.9133C25.3196 54.7969 24.8875 54.6673 24.4596 54.5257L19.8968 60.2586C19.6499 60.5679 19.3072 60.7647 18.9398 60.8345C18.5756 60.9036 18.1868 60.8458 17.8437 60.6471C17.8247 60.6361 17.806 60.6244 17.7875 60.6124L14.0773 58.4709C13.7333 58.2728 13.4873 57.9638 13.3645 57.6131C13.2413 57.2621 13.2398 56.8693 13.3838 56.5035L16.0698 49.6714C15.7332 49.3717 15.4071 49.0639 15.0923 48.7491C14.7714 48.4279 14.4609 48.0999 14.1617 47.7648L7.33424 50.4499C7.3152 50.4573 7.29616 50.4641 7.27681 50.4705C6.9267 50.594 6.55693 50.5869 6.22493 50.4705C5.87421 50.348 5.56494 50.1014 5.36624 49.7565L3.18756 45.9817L3.18602 45.9826C2.99131 45.6417 2.9348 45.256 3.00329 44.8942C3.0727 44.5284 3.26741 44.1879 3.57422 43.9419L3.57913 43.9382L3.57852 43.9376L9.30807 39.3726C9.16711 38.9457 9.03842 38.5148 8.92203 38.0805C8.80594 37.6469 8.70183 37.2093 8.61 36.7682L1.3636 35.6774C0.973251 35.6184 0.632352 35.4191 0.387888 35.1344C0.144959 34.8515 0 34.4861 0 34.0933V29.742C0 29.3495 0.146494 28.9822 0.392494 28.6969C0.634809 28.4156 0.974172 28.2181 1.3639 28.1598V28.1592L8.61 27.0683C8.70121 26.6291 8.80502 26.1924 8.9208 25.7594C9.03658 25.3263 9.16649 24.8921 9.30992 24.4575L3.57944 19.8987C3.26986 19.6533 3.07362 19.3105 3.00329 18.9423C2.93388 18.5784 2.99039 18.1902 3.18571 17.849C3.20138 17.8216 3.21827 17.7949 3.23577 17.7694L5.36747 14.0751L5.36562 14.0739C5.56341 13.7324 5.87267 13.4879 6.22432 13.3654C6.57351 13.2438 6.9657 13.2431 7.3327 13.3881L7.33362 13.386L14.1614 16.0705C14.4603 15.736 14.7704 15.408 15.0914 15.0874C15.4062 14.7723 15.7326 14.4645 16.0695 14.1642L13.3832 7.3324C13.2392 6.96601 13.241 6.5732 13.3638 6.22217C13.4864 5.87114 13.7324 5.56249 14.0767 5.3644L17.8441 3.18971L17.8431 3.18786C18.1862 2.98977 18.5756 2.93234 18.9389 3.00114C19.3047 3.07055 19.6465 3.26587 19.8919 3.57207L19.8956 3.57698L19.8962 3.57637L24.4603 9.30654C24.8881 9.16526 25.3199 9.03627 25.7547 8.91988C26.1893 8.80348 26.6279 8.69967 27.0692 8.60815L28.157 1.36544C28.1604 1.34363 28.1644 1.32213 28.1687 1.30064C28.2384 0.937932 28.4294 0.62191 28.6954 0.392801C28.9807 0.147109 29.348 0 29.7411 0H34.0908C34.4845 0 34.8509 0.146801 35.1359 0.392494C35.4182 0.636037 35.6159 0.976015 35.6746 1.36513L36.7624 8.60815C37.2034 8.69967 37.6414 8.80348 38.0759 8.91957C38.5117 9.03628 38.9448 9.16526 39.3741 9.30715L43.9388 3.57606C43.9673 3.54013 43.9977 3.50665 44.0297 3.47532C44.2671 3.22288 44.5721 3.06072 44.8954 2.99991C45.2603 2.93112 45.6491 2.98885 45.9919 3.18817L49.7534 5.36102L49.754 5.35979C50.0974 5.55665 50.3431 5.86684 50.4671 6.22156C50.59 6.5729 50.5912 6.96601 50.4475 7.33209L47.7615 14.1633C48.099 14.4636 48.4248 14.7707 48.7381 15.0837C49.0612 15.4065 49.3726 15.7357 49.672 16.0702L56.4977 13.3857C56.5379 13.37 56.5788 13.3568 56.6196 13.346C56.9507 13.2441 57.2953 13.256 57.6064 13.3645C57.9577 13.4867 58.2679 13.7321 58.4663 14.0739L60.6441 17.8447C60.8424 18.1874 60.9005 18.5765 60.8317 18.9414C60.7623 19.3084 60.5657 19.6511 60.2559 19.8987L54.5235 24.4624C54.6657 24.8927 54.7953 25.326 54.912 25.7615C55.0281 26.1942 55.1316 26.6303 55.2225 27.0683L62.4708 28.1592C62.4923 28.1625 62.5138 28.1662 62.535 28.1708C62.8977 28.2405 63.2134 28.4313 63.4422 28.6972C63.6879 28.9822 63.8347 29.3492 63.8347 29.7423V34.0936C63.8347 34.4867 63.6894 34.8521 63.4465 35.1344C63.2017 35.4191 62.8602 35.6187 62.4705 35.6777L55.2222 36.7682C55.1313 37.2056 55.0281 37.6408 54.912 38.0726C54.795 38.5087 54.6654 38.9423 54.5232 39.3726L60.2559 43.9376C60.566 44.1848 60.7623 44.5275 60.8317 44.8945C60.9002 45.2566 60.8421 45.6442 60.6441 45.9872L60.6422 45.9903L60.6441 45.9915L58.4663 49.7614C58.4463 49.7958 58.4248 49.8287 58.4018 49.86C58.204 50.1514 57.9227 50.3612 57.6076 50.4714C57.2569 50.594 56.8644 50.5949 56.4983 50.4499L56.498 50.4506L49.6723 47.7654C49.3729 48.1002 49.0615 48.4291 48.7384 48.7522C48.4251 49.0652 48.0993 49.3723 47.7618 49.6726L50.4478 56.5044C50.5918 56.8699 50.5906 57.2627 50.4675 57.6147C50.3449 57.9648 50.0995 58.2737 49.7543 58.4727L45.9848 60.6431L45.9866 60.6465C45.6448 60.8428 45.2563 60.8983 44.8908 60.8286C44.5297 60.7595 44.1903 60.5627 43.9428 60.2528L43.9412 60.2506L43.9385 60.2528L39.3738 54.5281C38.9445 54.6694 38.5084 54.799 38.0664 54.9166C37.634 55.0318 37.1988 55.1347 36.7621 55.2247L35.6743 62.4702C35.6159 62.8596 35.4182 63.1993 35.1359 63.4425C34.8506 63.6882 34.4836 63.8347 34.0905 63.8347L34.0911 63.8335Z" fill="white"/>
</svg>
