<svg width="66" height="66" viewBox="0 0 66 66" fill="none" xmlns="http://www.w3.org/2000/svg">
<path d="M33.859 0.38288L40.1279 5.48195L48.1332 4.19603C48.9131 4.07222 49.6519 4.52082 49.9212 5.23111L49.9244 5.22991L52.8114 12.8007L60.3822 15.6877C61.1589 15.9836 61.5809 16.8052 61.3976 17.5927L60.1302 25.4843L65.2449 31.7724C65.749 32.3922 65.7249 33.2693 65.2293 33.859L60.1302 40.1279L61.4161 48.1332C61.5399 48.9131 61.0913 49.6519 60.381 49.9212L60.3822 49.9244L52.8114 52.8114L49.9244 60.3822C49.6286 61.1589 48.8069 61.5809 48.0195 61.3976L40.1279 60.1302L33.8398 65.2449C33.2199 65.749 32.3428 65.7249 31.7531 65.2293L25.4843 60.1302L17.4789 61.4161C16.6991 61.5399 15.9603 61.0913 15.6909 60.381L15.6877 60.3822L12.8007 52.8114L5.22991 49.9244C4.45329 49.6286 4.03122 48.8069 4.21452 48.0195L5.48195 40.1279L0.367203 33.8398C-0.136875 33.2199 -0.112757 32.3428 0.38288 31.7531L5.48195 25.4843L4.19603 17.4789C4.07222 16.6991 4.52082 15.9603 5.23111 15.6909L5.22991 15.6877L12.8007 12.8007L15.6877 5.22991C15.9836 4.45329 16.8052 4.03122 17.5927 4.21452L25.4843 5.48195L31.7724 0.367203C32.3922 -0.136875 33.2693 -0.112757 33.859 0.38288V0.38288ZM19.3489 32.4972C18.7178 31.8484 18.7319 30.8105 19.3811 30.1794C20.0299 29.5483 21.0678 29.5623 21.6989 30.2115L29.8453 38.6008L43.888 23.5162C44.505 22.8529 45.5429 22.8156 46.2057 23.4326C46.869 24.0496 46.9064 25.0875 46.2894 25.7504L31.0717 42.0975L31.0709 42.0971C31.0525 42.1168 31.0336 42.1365 31.0139 42.1554C30.3651 42.7865 29.3272 42.7725 28.6961 42.1233L19.3489 32.4976V32.4972ZM38.6293 8.48752L32.8063 3.75104L26.9832 8.48752V8.48712C26.6347 8.77051 26.1717 8.91 25.6929 8.83403L18.2825 7.64377L15.6077 14.6571C15.4465 15.0795 15.1129 15.4337 14.6575 15.6073L7.64418 18.2821L8.8296 25.6628C8.91 26.1154 8.80026 26.5986 8.48752 26.9832L3.75104 32.8063L8.48752 38.6293H8.48712C8.77051 38.9778 8.91 39.4409 8.83403 39.9196L7.64377 47.3301L14.6571 50.0048C15.0795 50.166 15.4337 50.4997 15.6073 50.9551L18.2821 57.9684L25.6628 56.7829C26.1154 56.7025 26.5986 56.8123 26.9832 57.125L32.8063 61.8615L38.6293 57.125V57.1254C38.9778 56.842 39.4409 56.7025 39.9196 56.7785L47.3301 57.9688L50.0048 50.9555C50.166 50.533 50.4997 50.1789 50.9551 50.0052L57.9684 47.3305L56.7829 39.9498C56.7025 39.4972 56.8123 39.014 57.125 38.6293L61.8615 32.8063L57.125 26.9832H57.1254C56.842 26.6347 56.7025 26.1717 56.7785 25.6929L57.9688 18.2825L50.9555 15.6077C50.533 15.4465 50.1789 15.1129 50.0052 14.6575L47.3305 7.64418L39.9498 8.8296C39.4972 8.91 39.014 8.80026 38.6293 8.48752V8.48752Z" fill="white"/>
</svg>
